<svg width="236" height="52" viewBox="0 0 236 52" fill="none" xmlns="http://www.w3.org/2000/svg">
<rect width="236" height="52" rx="26" fill="black"/>
<path d="M36.0047 7H35.9953C25.5191 7 17 15.5215 17 26C17 30.1562 18.3395 34.0085 20.6171 37.1364L18.2493 44.1949L25.5524 41.8603C28.5568 43.8505 32.1406 45 36.0047 45C46.4809 45 55 36.4761 55 26C55 15.5239 46.4809 7 36.0047 7Z" fill="white"/>
<path d="M47.0603 33.8304C46.6019 35.1248 44.7827 36.1983 43.3316 36.5118C42.3388 36.7232 41.0421 36.8918 36.6768 35.0821C31.0932 32.7688 27.4974 27.0949 27.2172 26.7268C26.9488 26.3587 24.9609 23.7224 24.9609 20.9959C24.9609 18.2694 26.3456 16.9418 26.9037 16.3718C27.3621 15.9039 28.1197 15.6902 28.8464 15.6902C29.0816 15.6902 29.2929 15.7021 29.4829 15.7116C30.0411 15.7353 30.3213 15.7686 30.6894 16.6497C31.1478 17.7541 32.2641 20.4806 32.3971 20.7608C32.5324 21.0411 32.6678 21.4211 32.4778 21.7892C32.2997 22.1692 32.1429 22.3378 31.8627 22.6608C31.5824 22.9838 31.3164 23.2308 31.0362 23.5776C30.7797 23.8792 30.4899 24.2022 30.8129 24.7603C31.1359 25.3066 32.2522 27.1282 33.8957 28.5912C36.0166 30.4793 37.7361 31.0826 38.3512 31.3391C38.8096 31.5291 39.3558 31.4839 39.6907 31.1277C40.1158 30.6693 40.6407 29.9093 41.1751 29.1612C41.5551 28.6244 42.0348 28.5579 42.5383 28.7479C43.0513 28.9261 45.7659 30.2679 46.3241 30.5458C46.8822 30.8261 47.2503 30.9591 47.3857 31.1942C47.5187 31.4293 47.5187 32.5337 47.0603 33.8304Z" fill="#F2A39A"/>
<path d="M68.72 26.718C68.72 30.318 71.618 33.18 75.218 33.18C76.82 33.18 78.368 32.622 79.592 31.434C79.718 31.308 79.754 31.074 79.61 30.948L78.494 29.796C78.386 29.688 78.188 29.67 78.044 29.796C77.288 30.408 76.37 30.822 75.29 30.822C72.986 30.822 71.258 28.914 71.258 26.664C71.258 24.396 72.968 22.47 75.272 22.47C76.28 22.47 77.288 22.866 78.044 23.532C78.188 23.676 78.368 23.676 78.494 23.532L79.592 22.398C79.736 22.254 79.736 22.038 79.574 21.894C78.35 20.796 77.036 20.22 75.218 20.22C71.618 20.22 68.72 23.118 68.72 26.718ZM81.1913 32.658C81.1913 32.838 81.3533 33 81.5333 33H83.0273C83.2973 33 83.4053 32.856 83.4053 32.658V28.842C83.5853 28.104 84.1433 27.564 84.9713 27.564C85.8353 27.564 86.3933 28.194 86.3933 29.184V32.658C86.3933 32.838 86.5373 33 86.7353 33H88.1933C88.3733 33 88.5353 32.838 88.5353 32.658V29.202C88.5353 27.384 87.5993 25.62 85.3133 25.62C84.4673 25.62 83.7653 25.944 83.4053 26.214V20.742C83.4053 20.562 83.2433 20.4 83.0633 20.4H81.5333C81.3533 20.4 81.1913 20.562 81.1913 20.742V32.658ZM90.0209 30.714C90.0209 32.244 91.0109 33.18 92.4509 33.18C93.5669 33.18 94.2329 32.64 94.6469 32.262L94.8629 32.748C94.9529 32.946 95.0429 33 95.1689 33H95.8169C95.9969 33 96.1589 32.838 96.1589 32.658V28.752C96.1589 26.79 95.6369 25.62 93.3869 25.62C92.2349 25.62 91.0829 25.908 90.9389 25.962C90.7769 26.016 90.6329 26.142 90.6869 26.412L90.8489 27.348C90.8849 27.582 91.0109 27.744 91.2629 27.672C91.6769 27.546 92.6129 27.402 93.2789 27.402C93.9449 27.402 94.2329 27.726 94.2149 28.644C94.2149 28.644 93.6209 28.446 92.9009 28.446C91.0649 28.446 90.0209 29.436 90.0209 30.714ZM92.0009 30.714C92.0009 30.138 92.4689 29.742 93.1709 29.742C93.6929 29.742 94.1789 29.958 94.1789 29.958V30.948C94.0709 31.164 93.5129 31.65 92.9369 31.65C92.3789 31.65 92.0009 31.254 92.0009 30.714ZM98.6025 30.858C98.6025 32.316 99.2145 33.18 100.601 33.18C101.483 33.18 102.653 32.766 102.743 32.712C102.923 32.64 103.013 32.46 102.941 32.28L102.581 31.146C102.527 30.966 102.383 30.876 102.185 30.948C101.987 31.02 101.609 31.146 101.303 31.146C101.015 31.146 100.745 31.074 100.745 30.57V27.69H102.329C102.527 27.69 102.671 27.528 102.671 27.348V26.142C102.671 25.944 102.527 25.8 102.329 25.8H100.745V23.784C100.745 23.604 100.601 23.442 100.421 23.442L98.9445 23.46C98.7645 23.46 98.6025 23.622 98.6025 23.802V25.8H97.9905C97.8105 25.8 97.6665 25.944 97.6665 26.142V27.348C97.6665 27.528 97.8105 27.69 97.9905 27.69H98.6025V30.858ZM112.884 32.982C112.938 33.09 113.028 33.18 113.19 33.18H113.37C113.532 33.18 113.622 33.09 113.676 32.982L119.256 20.868C119.364 20.634 119.22 20.4 118.95 20.4H117.114C116.952 20.4 116.844 20.508 116.808 20.598L113.352 28.338H113.226L109.77 20.598C109.734 20.508 109.626 20.4 109.464 20.4H107.628C107.358 20.4 107.214 20.634 107.322 20.868L112.884 32.982ZM121.189 23.244C121.891 23.244 122.449 22.686 122.449 22.002C122.449 21.318 121.891 20.76 121.189 20.76C120.505 20.76 119.965 21.318 119.965 22.002C119.965 22.686 120.505 23.244 121.189 23.244ZM120.127 32.658C120.127 32.838 120.289 33 120.469 33H121.963C122.143 33 122.305 32.838 122.305 32.658V26.142C122.305 25.944 122.143 25.8 121.963 25.8H120.469C120.289 25.8 120.127 25.944 120.127 26.142V32.658ZM123.947 30.714C123.947 32.244 124.937 33.18 126.377 33.18C127.493 33.18 128.159 32.64 128.573 32.262L128.789 32.748C128.879 32.946 128.969 33 129.095 33H129.743C129.923 33 130.085 32.838 130.085 32.658V28.752C130.085 26.79 129.563 25.62 127.313 25.62C126.161 25.62 125.009 25.908 124.865 25.962C124.703 26.016 124.559 26.142 124.613 26.412L124.775 27.348C124.811 27.582 124.937 27.744 125.189 27.672C125.603 27.546 126.539 27.402 127.205 27.402C127.871 27.402 128.159 27.726 128.141 28.644C128.141 28.644 127.547 28.446 126.827 28.446C124.991 28.446 123.947 29.436 123.947 30.714ZM125.927 30.714C125.927 30.138 126.395 29.742 127.097 29.742C127.619 29.742 128.105 29.958 128.105 29.958V30.948C127.997 31.164 127.439 31.65 126.863 31.65C126.305 31.65 125.927 31.254 125.927 30.714ZM138.967 32.928C139.003 33.072 139.147 33.18 139.291 33.18H139.579C139.759 33.18 139.831 33.09 139.885 32.982L143.071 24.828H143.161L146.383 32.982C146.419 33.09 146.527 33.18 146.689 33.18H146.977C147.121 33.18 147.265 33.072 147.301 32.928L150.703 20.832C150.775 20.58 150.631 20.4 150.379 20.4H148.723C148.579 20.4 148.435 20.526 148.399 20.652L146.563 27.834H146.491L143.611 20.418C143.575 20.31 143.485 20.22 143.305 20.22H142.981C142.801 20.22 142.711 20.31 142.675 20.418L139.813 27.834H139.741L137.869 20.652C137.833 20.526 137.689 20.4 137.545 20.4H135.889C135.637 20.4 135.493 20.58 135.565 20.832L138.967 32.928ZM151.978 32.658C151.978 32.838 152.14 33 152.32 33H153.814C154.084 33 154.192 32.856 154.192 32.658V28.842C154.372 28.104 154.93 27.564 155.758 27.564C156.622 27.564 157.18 28.194 157.18 29.184V32.658C157.18 32.838 157.324 33 157.522 33H158.98C159.16 33 159.322 32.838 159.322 32.658V29.202C159.322 27.384 158.386 25.62 156.1 25.62C155.254 25.62 154.552 25.944 154.192 26.214V20.742C154.192 20.562 154.03 20.4 153.85 20.4H152.32C152.14 20.4 151.978 20.562 151.978 20.742V32.658ZM160.808 30.714C160.808 32.244 161.798 33.18 163.238 33.18C164.354 33.18 165.02 32.64 165.434 32.262L165.65 32.748C165.74 32.946 165.83 33 165.956 33H166.604C166.784 33 166.946 32.838 166.946 32.658V28.752C166.946 26.79 166.424 25.62 164.174 25.62C163.022 25.62 161.87 25.908 161.726 25.962C161.564 26.016 161.42 26.142 161.474 26.412L161.636 27.348C161.672 27.582 161.798 27.744 162.05 27.672C162.464 27.546 163.4 27.402 164.066 27.402C164.732 27.402 165.02 27.726 165.002 28.644C165.002 28.644 164.408 28.446 163.688 28.446C161.852 28.446 160.808 29.436 160.808 30.714ZM162.788 30.714C162.788 30.138 163.256 29.742 163.958 29.742C164.48 29.742 164.966 29.958 164.966 29.958V30.948C164.858 31.164 164.3 31.65 163.724 31.65C163.166 31.65 162.788 31.254 162.788 30.714ZM169.39 30.858C169.39 32.316 170.002 33.18 171.388 33.18C172.27 33.18 173.44 32.766 173.53 32.712C173.71 32.64 173.8 32.46 173.728 32.28L173.368 31.146C173.314 30.966 173.17 30.876 172.972 30.948C172.774 31.02 172.396 31.146 172.09 31.146C171.802 31.146 171.532 31.074 171.532 30.57V27.69H173.116C173.314 27.69 173.458 27.528 173.458 27.348V26.142C173.458 25.944 173.314 25.8 173.116 25.8H171.532V23.784C171.532 23.604 171.388 23.442 171.208 23.442L169.732 23.46C169.552 23.46 169.39 23.622 169.39 23.802V25.8H168.778C168.598 25.8 168.454 25.944 168.454 26.142V27.348C168.454 27.528 168.598 27.69 168.778 27.69H169.39V30.858ZM174.929 32.514C175.307 32.802 176.135 33.18 177.323 33.18C179.141 33.18 180.185 32.172 180.185 30.984C180.185 29.58 179.141 28.986 177.755 28.446C177.089 28.176 176.765 28.068 176.765 27.744C176.765 27.51 176.945 27.33 177.377 27.33C178.061 27.33 178.871 27.708 178.871 27.708C179.015 27.762 179.213 27.744 179.303 27.582L179.753 26.664C179.843 26.484 179.753 26.286 179.591 26.178C179.213 25.926 178.439 25.62 177.377 25.62C175.541 25.62 174.731 26.646 174.731 27.744C174.731 28.842 175.379 29.58 176.765 30.12C177.719 30.498 177.971 30.696 177.971 31.02C177.971 31.326 177.719 31.47 177.359 31.47C176.531 31.47 175.721 31.038 175.721 31.038C175.559 30.948 175.379 30.984 175.307 31.164L174.821 32.136C174.749 32.28 174.821 32.424 174.929 32.514ZM180.999 33H182.565C182.853 33 183.015 32.82 183.087 32.64L183.969 30.696H189.351L190.233 32.64C190.359 32.892 190.485 33 190.755 33H192.321C192.591 33 192.735 32.766 192.627 32.532L187.083 20.418C187.029 20.31 186.957 20.22 186.777 20.22H186.597C186.435 20.22 186.345 20.31 186.291 20.418L180.693 32.532C180.585 32.766 180.729 33 180.999 33ZM184.851 28.698L186.615 24.738H186.669L188.469 28.698H184.851ZM195.853 32.784C196.105 32.928 196.753 33.18 197.455 33.18C199.399 33.18 201.019 31.524 201.019 29.4C201.019 27.33 199.525 25.62 197.545 25.62C196.375 25.62 195.493 26.25 195.223 26.61L194.989 26.016C194.935 25.872 194.809 25.8 194.683 25.8H193.981C193.801 25.8 193.639 25.944 193.639 26.142V38.058C193.639 38.238 193.801 38.4 193.981 38.4H195.421C195.745 38.4 195.853 38.274 195.853 38.058V32.784ZM195.763 30.822V28.662C195.871 28.284 196.321 27.564 197.239 27.564C198.229 27.564 198.913 28.392 198.913 29.4C198.913 30.408 198.175 31.236 197.167 31.236C196.267 31.236 195.763 30.822 195.763 30.822ZM204.853 32.784C205.105 32.928 205.753 33.18 206.455 33.18C208.399 33.18 210.019 31.524 210.019 29.4C210.019 27.33 208.525 25.62 206.545 25.62C205.375 25.62 204.493 26.25 204.223 26.61L203.989 26.016C203.935 25.872 203.809 25.8 203.683 25.8H202.981C202.801 25.8 202.639 25.944 202.639 26.142V38.058C202.639 38.238 202.801 38.4 202.981 38.4H204.421C204.745 38.4 204.853 38.274 204.853 38.058V32.784ZM204.763 30.822V28.662C204.871 28.284 205.321 27.564 206.239 27.564C207.229 27.564 207.913 28.392 207.913 29.4C207.913 30.408 207.175 31.236 206.167 31.236C205.267 31.236 204.763 30.822 204.763 30.822Z" fill="white"/>
</svg>
