<svg width="21" height="20" viewBox="0 0 21 20" fill="none" xmlns="http://www.w3.org/2000/svg">
<path fill-rule="evenodd" clip-rule="evenodd" d="M10.6529 7.52191C10.5145 7.65993 10.3269 7.73744 10.1314 7.73744C9.93594 7.73744 9.74842 7.65993 9.60996 7.52191L2.30357 0.215524C2.16512 0.0775028 1.97759 0 1.7821 0C1.5866 0 1.39907 0.0775028 1.26062 0.215524L0.216236 1.25848C0.0777795 1.39699 0 1.58482 0 1.78067C0 1.97652 0.0777795 2.16435 0.216236 2.30286L7.5212 9.60925C7.65922 9.7477 7.73672 9.93523 7.73672 10.1307C7.73672 10.3262 7.65922 10.5137 7.5212 10.6522L0.477689 17.6971C0.339232 17.8357 0.261453 18.0235 0.261453 18.2193C0.261453 18.4152 0.339232 18.603 0.477689 18.7415L1.52064 19.7845C1.6591 19.9225 1.84662 20 2.04212 20C2.23762 20 2.42514 19.9225 2.5636 19.7845L9.60996 12.741C9.74842 12.6029 9.93594 12.5254 10.1314 12.5254C10.3269 12.5254 10.5145 12.6029 10.6529 12.741L17.4364 19.5245C17.5749 19.6629 17.7627 19.7407 17.9586 19.7407C18.1544 19.7407 18.3423 19.6629 18.4808 19.5245L19.5237 18.4815C19.6622 18.343 19.74 18.1552 19.74 17.9593C19.74 17.7635 19.6622 17.5756 19.5237 17.4371L12.7417 10.6536C12.6037 10.5152 12.5262 10.3277 12.5262 10.1322C12.5262 9.93666 12.6037 9.74913 12.7417 9.61068L19.7866 2.56431C19.9246 2.42586 20.0021 2.23833 20.0021 2.04284C20.0021 1.84734 19.9246 1.65981 19.7866 1.52136L18.7437 0.476976C18.6752 0.408463 18.5939 0.354112 18.5044 0.31703C18.4149 0.279948 18.319 0.260862 18.2222 0.260862C18.1253 0.260862 18.0294 0.279948 17.9399 0.31703C17.8505 0.354112 17.7692 0.408463 17.7007 0.476976L10.6543 7.52048L10.6529 7.52191Z" fill="black"/>
</svg>
