<svg width="18" height="12" viewBox="0 0 18 12" fill="none" xmlns="http://www.w3.org/2000/svg">
<path fill-rule="evenodd" clip-rule="evenodd" d="M18 1.6364L0.993003 12L0 10.3869L17.0452 0L18 1.6364Z" fill="black"/>
<path fill-rule="evenodd" clip-rule="evenodd" d="M0.14069 5.79058C2.43955 2.82549 5.55496 1 8.99038 1C10.8715 1 12.6567 1.54735 14.2645 2.53004L11.9634 3.93626C11.2239 3.02368 10.049 2.45997 8.74394 2.5397C6.86071 2.65402 5.33427 4.13656 5.21657 5.96562C5.1732 6.63638 5.3151 7.27121 5.59723 7.82667L3.00664 9.40981C1.95608 8.6585 0.992351 7.7156 0.14069 6.6158C-0.0468967 6.37288 -0.0468967 6.0335 0.14069 5.79058ZM4.86424 10.4928C6.15847 11.0873 7.54614 11.4099 8.99038 11.4099C12.4258 11.4099 15.5412 9.58445 17.8401 6.61937C18.0276 6.37645 18.0276 6.03707 17.8401 5.79415C17.2486 5.03035 16.6031 4.34222 15.912 3.74139L12.7338 5.68359C12.77 5.93009 12.781 6.18451 12.7642 6.44432C12.6428 8.26981 11.1164 9.75236 9.23681 9.87024C8.36518 9.9235 7.55157 9.68971 6.88699 9.25665L4.86424 10.4928ZM8.68374 8.15863C8.82584 8.17948 8.97272 8.1861 9.12279 8.17693C9.97527 8.12575 10.6945 7.55184 10.9392 6.78028L8.68374 8.15863ZM10.4755 4.84552C10.0763 4.43511 9.49756 4.19061 8.86164 4.22944C7.84646 4.29374 7.02255 5.09039 6.96002 6.07637C6.93989 6.3732 6.9876 6.65699 7.08955 6.9147L10.4755 4.84552Z" fill="black"/>
</svg>
