<?xml version="1.0" encoding="utf-8"?>
<!-- Generator: Adobe Illustrator 24.1.0, SVG Export Plug-In . SVG Version: 6.00 Build 0)  -->
<svg version="1.1" id="Layer_1" xmlns="http://www.w3.org/2000/svg" xmlns:xlink="http://www.w3.org/1999/xlink" x="0px" y="0px"
	 viewBox="0 0 100 100" style="enable-background:new 0 0 100 100;" xml:space="preserve">
<style type="text/css">
	.st0{fill:#E5A800;}
	.st1{fill:#FFFFFF;}
</style>
<g>
	<path class="st0" d="M96.1,30.5c-2.5-6-6.1-11.3-10.7-15.9c-4.6-4.6-10-8.2-15.9-10.7C63.3,1.3,56.7,0,50,0S36.7,1.3,30.5,3.9
		c-6,2.5-11.3,6.1-15.9,10.7c-4.6,4.6-8.2,10-10.7,15.9C1.3,36.7,0,43.2,0,50s1.3,13.3,3.9,19.5c2.5,6,6.1,11.3,10.7,15.9
		c4.6,4.6,10,8.2,15.9,10.7c6.2,2.6,12.7,3.9,19.5,3.9s13.3-1.3,19.5-3.9c6-2.5,11.3-6.1,15.9-10.7c4.6-4.6,8.2-10,10.7-15.9
		c2.6-6.2,3.9-12.7,3.9-19.5S98.7,36.7,96.1,30.5z M93.3,68.3c-2.4,5.6-5.8,10.6-10.1,14.9s-9.3,7.7-14.9,10.1
		C62.5,95.8,56.3,97,50,97s-12.5-1.2-18.3-3.7c-5.6-2.4-10.6-5.8-14.9-10.1S9.1,73.9,6.7,68.3C4.2,62.5,3,56.3,3,50
		s1.3-12.5,3.7-18.3c2.4-5.6,5.8-10.6,10.1-14.9s9.3-7.7,14.9-10.1C37.5,4.2,43.7,3,50,3s12.5,1.3,18.3,3.7
		c5.6,2.4,10.6,5.8,14.9,10.1s7.7,9.3,10.1,14.9c2.5,5.8,3.7,12,3.7,18.3S95.8,62.5,93.3,68.3z"/>
	<path class="st0" d="M93.3,31.7c-2.4-5.6-5.8-10.6-10.1-14.9S73.9,9.1,68.3,6.7C62.5,4.3,56.3,3,50,3S37.5,4.2,31.7,6.7
		c-5.6,2.4-10.6,5.8-14.9,10.1S9.1,26.1,6.7,31.7C4.3,37.5,3,43.7,3,50s1.2,12.5,3.7,18.3c2.4,5.6,5.8,10.6,10.1,14.9
		s9.3,7.7,14.9,10.1c5.8,2.5,12,3.7,18.3,3.7s12.5-1.2,18.3-3.7c5.6-2.4,10.6-5.8,14.9-10.1s7.7-9.3,10.1-14.9
		c2.5-5.8,3.7-12,3.7-18.3S95.8,37.5,93.3,31.7z M35.1,28.5c6.3,0,11.3,5.1,11.3,11.3s-5.1,11.3-11.3,11.3
		c-6.3,0-11.3-5.1-11.3-11.3C23.8,33.5,28.9,28.5,35.1,28.5z M52.2,71.6c-0.8,0-1.4-0.6-1.5-1.3C50,62.8,43.2,57,35.1,57
		c-8.1,0-14.9,5.9-15.6,13.3c-0.1,0.8-0.7,1.3-1.5,1.3c-0.9,0-1.6-0.8-1.5-1.6c0.9-9,8.9-16,18.6-16c9.7,0,17.7,7.1,18.6,16
		C53.8,70.8,53.1,71.6,52.2,71.6z M70.2,60.2h-13c-0.7,0-1.2-0.6-1.2-1.3c0-0.7,0.6-1.3,1.2-1.3h13c0.7,0,1.3,0.6,1.3,1.3
		C71.4,59.6,70.9,60.2,70.2,60.2z M82.2,51.1h-25c-0.7,0-1.2-0.6-1.2-1.3s0.6-1.3,1.2-1.3h25.1c0.7,0,1.2,0.6,1.2,1.3
		S82.9,51.1,82.2,51.1z M82.2,42h-25c-0.7,0-1.2-0.6-1.2-1.3s0.6-1.3,1.2-1.3h25.1c0.7,0,1.2,0.6,1.2,1.3S82.9,42,82.2,42z"/>
	<path class="st1" d="M83.5,40.7c0,0.7-0.6,1.3-1.3,1.3h-25c-0.7,0-1.2-0.6-1.2-1.3s0.6-1.3,1.2-1.3h25.1C83,39.4,83.5,40,83.5,40.7
		z"/>
	<path class="st1" d="M83.5,49.8c0,0.7-0.6,1.3-1.3,1.3h-25c-0.7,0-1.2-0.6-1.2-1.3s0.6-1.3,1.2-1.3h25.1
		C83,48.5,83.5,49.1,83.5,49.8z"/>
	<path class="st1" d="M71.5,58.9c-0.1,0.7-0.6,1.3-1.3,1.3h-13c-0.7,0-1.2-0.6-1.2-1.3c0-0.7,0.6-1.3,1.2-1.3h13
		C70.9,57.6,71.5,58.2,71.5,58.9z"/>
	<path class="st1" d="M35.1,28.5c-6.2,0-11.3,5-11.3,11.3c0,6.2,5,11.3,11.3,11.3c6.2,0,11.3-5.1,11.3-11.3S41.4,28.5,35.1,28.5z
		 M35.1,48c-4.6,0-8.3-3.7-8.3-8.3c0-4.6,3.7-8.3,8.3-8.3c4.6,0,8.3,3.8,8.3,8.3C43.4,44.3,39.7,48,35.1,48z"/>
	<circle class="st0" cx="35.1" cy="39.7" r="8.3"/>
	<path class="st1" d="M52.2,71.6c-0.8,0-1.4-0.6-1.5-1.3C50,62.8,43.2,57,35.1,57c-8.1,0-14.9,5.9-15.6,13.3
		c-0.1,0.8-0.7,1.3-1.5,1.3c-0.9,0-1.6-0.8-1.5-1.6c0.9-9,8.9-16,18.6-16c9.7,0,17.7,7.1,18.6,16C53.8,70.8,53.1,71.6,52.2,71.6z"/>
</g>
</svg>
