<?xml version="1.0" encoding="utf-8"?>
<!-- Generator: Adobe Illustrator 24.1.0, SVG Export Plug-In . SVG Version: 6.00 Build 0)  -->
<svg version="1.1" id="Layer_1" xmlns="http://www.w3.org/2000/svg" xmlns:xlink="http://www.w3.org/1999/xlink" x="0px" y="0px"
	 viewBox="0 0 100 100" style="enable-background:new 0 0 100 100;" xml:space="preserve">
<style type="text/css">
	.st0{fill:#231F20;}
</style>
<g>
	<path class="st0" d="M50,100c-6.8,0-13.3-1.3-19.5-3.9c-5.9-2.5-11.3-6.1-15.9-10.7c-4.6-4.6-8.2-9.9-10.7-15.9
		C1.3,63.3,0,56.8,0,50s1.3-13.3,3.9-19.5c2.5-5.9,6.1-11.3,10.7-15.9s9.9-8.2,15.9-10.7C36.7,1.3,43.3,0,50,0s13.3,1.3,19.5,3.9
		c5.9,2.5,11.3,6.1,15.9,10.7c4.6,4.6,8.2,9.9,10.7,15.9c2.6,6.2,3.9,12.7,3.9,19.5s-1.3,13.3-3.9,19.5c-2.5,5.9-6.1,11.3-10.7,15.9
		c-4.6,4.6-9.9,8.2-15.9,10.7C63.3,98.7,56.8,100,50,100z M50,3c-6.3,0-12.5,1.2-18.3,3.7c-5.6,2.4-10.6,5.8-14.9,10.1
		S9.1,26.1,6.7,31.7C4.3,37.5,3,43.7,3,50s1.2,12.5,3.7,18.3c2.4,5.6,5.8,10.6,10.1,14.9c4.3,4.3,9.3,7.7,14.9,10.1
		C37.5,95.8,43.7,97,50,97c6.3,0,12.5-1.2,18.3-3.7c5.6-2.4,10.6-5.8,14.9-10.1c4.3-4.3,7.7-9.3,10.1-14.9c2.5-5.8,3.7-12,3.7-18.3
		s-1.2-12.5-3.7-18.3c-2.4-5.6-5.8-10.6-10.1-14.9c-4.3-4.3-9.3-7.7-14.9-10.1C62.5,4.3,56.3,3,50,3z"/>
</g>
<path class="st0" d="M74,33.1h-0.3v-2.7c0-2.2-1.8-4-4-4H25.1c-2.2,0-4,1.8-4,4v1.2v37.1c0,2.7,2.2,4.9,4.9,4.9H74
	c2.7,0,4.9-2.2,4.9-4.9V38C78.8,35.2,76.7,33.1,74,33.1z M74,71.1H26c-1.3,0-2.4-1.1-2.4-2.4V35.3c0.4,0.2,0.9,0.3,1.5,0.3h4
	c0.7,0,1.3-0.6,1.3-1.3s-0.6-1.3-1.3-1.3h-4c-0.1,0-0.2,0-0.3,0c-0.2,0-0.4-0.1-0.5-0.2c-0.2-0.1-0.3-0.2-0.4-0.4
	c-0.1-0.1-0.2-0.3-0.2-0.5c0-0.1,0-0.2,0-0.3v-1.2c0-0.8,0.7-1.5,1.5-1.5h44.5c0.8,0,1.5,0.7,1.5,1.5v2.7H36c-0.7,0-1.3,0.6-1.3,1.3
	s0.6,1.3,1.3,1.3h37.6H74c1.3,0,2.4,1.1,2.4,2.4v8.6h-7c-2.5,0-4.6,2.1-4.6,4.6v3.2c0,2.5,2.1,4.6,4.6,4.6h7v9.6
	C76.3,70,75.3,71.1,74,71.1z M76.3,49.1v7.5h-7c-1.2,0-2.1-1-2.1-2.1v-3.2c0-1.2,1-2.1,2.1-2.1H76.3z"/>
</svg>
