<?xml version="1.0" encoding="utf-8"?>
<!-- Generator: Adobe Illustrator 24.1.0, SVG Export Plug-In . SVG Version: 6.00 Build 0)  -->
<svg version="1.1" id="Layer_1" xmlns="http://www.w3.org/2000/svg" xmlns:xlink="http://www.w3.org/1999/xlink" x="0px" y="0px"
	 viewBox="0 0 1080 1080" style="enable-background:new 0 0 1080 1080;" xml:space="preserve">
<style type="text/css">
	.st0{fill:#D69828;}
	.st1{fill:#FFFFFF;}
	.st2{fill:#FEF8EE;}
</style>
<g>
	<rect x="-4.5" y="-4.5" class="st0" width="1089" height="1089"/>
	<path class="st1" d="M560.3,281.1L626,414.2c3.8,7.8,11.2,13.1,19.8,14.4l146.9,21.3c21.5,3.1,30.2,29.6,14.6,44.8L700.9,598.3
		c-6.2,6-9,14.7-7.6,23.3l25.1,146.3c3.7,21.5-18.8,37.8-38.1,27.7L549,726.4c-7.7-4-16.8-4-24.4,0l-131.4,69.1
		c-19.3,10.1-41.8-6.2-38.1-27.7l25.1-146.3c1.5-8.5-1.4-17.2-7.6-23.3L266.3,494.7c-15.6-15.2-7-41.7,14.6-44.8l146.9-21.3
		c8.6-1.2,16-6.6,19.8-14.4l65.7-133.1C522.8,261.5,550.7,261.5,560.3,281.1z"/>
	<path class="st2" d="M399.8,342c-35.5,0-64.4,28.8-64.4,64.3v0.1h-0.1v-0.1c0-35.5-28.9-64.3-64.4-64.3c35.5,0,64.4-28.9,64.4-64.4
		v-0.1h0.1v0.1C335.4,313.2,364.2,342,399.8,342z"/>
	<path class="st2" d="M884.6,712.1c-38.3,0-69.4,31-69.4,69.3v0.1h-0.1v-0.1c0-38.3-31.1-69.3-69.4-69.3c38.3,0,69.4-31.1,69.4-69.4
		v-0.1h0.1v0.1C815.2,681,846.3,712.1,884.6,712.1z"/>
	<path class="st2" d="M762.8,255.1c-21,0-38.1,17-38.1,38v0h0v0c0-21-17.1-38-38.1-38c21,0,38.1-17.1,38.1-38.1v0h0v0
		C724.7,238,741.8,255.1,762.8,255.1z"/>
	<path class="st2" d="M298.1,624.7c-22.2,0-40.3,18-40.3,40.2v0.1h-0.1v-0.1c0-22.2-18-40.2-40.3-40.2c22.2,0,40.3-18,40.3-40.3
		v-0.1h0.1v0.1C257.9,606.6,275.9,624.7,298.1,624.7z"/>
	<path class="st2" d="M515,870.7c-24,0-43.5,19.4-43.5,43.5v0.1h-0.1v-0.1c0-24-19.5-43.5-43.5-43.5c24,0,43.5-19.5,43.5-43.5v-0.1
		h0.1v0.1C471.4,851.2,490.9,870.7,515,870.7z"/>
</g>
</svg>
