<?xml version="1.0" encoding="utf-8"?>
<!-- Generator: Adobe Illustrator 24.1.0, SVG Export Plug-In . SVG Version: 6.00 Build 0)  -->
<svg version="1.1" id="Layer_1" xmlns="http://www.w3.org/2000/svg" xmlns:xlink="http://www.w3.org/1999/xlink" x="0px" y="0px"
	 viewBox="0 0 100 100" style="enable-background:new 0 0 100 100;" xml:space="preserve">
<style type="text/css">
	.st0{fill:#231F20;}
</style>
<g>
	<path class="st0" d="M50,100c-6.8,0-13.3-1.3-19.5-3.9c-5.9-2.5-11.3-6.1-15.9-10.7c-4.6-4.6-8.2-9.9-10.7-15.9
		C1.3,63.3,0,56.8,0,50s1.3-13.3,3.9-19.5c2.5-5.9,6.1-11.3,10.7-15.9s9.9-8.2,15.9-10.7C36.7,1.3,43.3,0,50,0s13.3,1.3,19.5,3.9
		c5.9,2.5,11.3,6.1,15.9,10.7c4.6,4.6,8.2,9.9,10.7,15.9c2.6,6.2,3.9,12.7,3.9,19.5s-1.3,13.3-3.9,19.5c-2.5,5.9-6.1,11.3-10.7,15.9
		c-4.6,4.6-9.9,8.2-15.9,10.7C63.3,98.7,56.8,100,50,100z M50,3c-6.3,0-12.5,1.2-18.3,3.7c-5.6,2.4-10.6,5.8-14.9,10.1
		S9.1,26.1,6.7,31.7C4.3,37.5,3,43.7,3,50s1.2,12.5,3.7,18.3c2.4,5.6,5.8,10.6,10.1,14.9c4.3,4.3,9.3,7.7,14.9,10.1
		C37.5,95.8,43.7,97,50,97c6.3,0,12.5-1.2,18.3-3.7c5.6-2.4,10.6-5.8,14.9-10.1c4.3-4.3,7.7-9.3,10.1-14.9c2.5-5.8,3.7-12,3.7-18.3
		s-1.2-12.5-3.7-18.3c-2.4-5.6-5.8-10.6-10.1-14.9c-4.3-4.3-9.3-7.7-14.9-10.1C62.5,4.3,56.3,3,50,3z"/>
</g>
<g>
	<g>
		<path d="M83.5,40.7c0,0.7-0.6,1.3-1.3,1.3H57.2c-0.7,0-1.2-0.6-1.2-1.3l0,0c0-0.7,0.6-1.3,1.2-1.3h25.1C83,39.4,83.5,40,83.5,40.7
			L83.5,40.7z"/>
	</g>
	<g>
		<path d="M83.5,49.8c0,0.7-0.6,1.3-1.3,1.3H57.2c-0.7,0-1.2-0.6-1.2-1.3l0,0c0-0.7,0.6-1.3,1.2-1.3h25.1
			C83,48.5,83.5,49.1,83.5,49.8L83.5,49.8z"/>
	</g>
	<g>
		<path d="M70.2,60.2h-13c-0.7,0-1.2-0.6-1.2-1.3l0,0c0-0.7,0.6-1.3,1.2-1.3h13c0.7,0,1.3,0.6,1.3,1.3l0,0
			C71.4,59.6,70.9,60.2,70.2,60.2z"/>
	</g>
	<g>
		<path d="M35.1,51.1c-6.3,0-11.3-5.1-11.3-11.3c0-6.3,5.1-11.3,11.3-11.3c6.3,0,11.3,5.1,11.3,11.3C46.4,46,41.3,51.1,35.1,51.1z
			 M35.1,31.4c-4.6,0-8.3,3.7-8.3,8.3c0,4.6,3.7,8.3,8.3,8.3c4.6,0,8.3-3.7,8.3-8.3C43.4,35.2,39.7,31.4,35.1,31.4z"/>
	</g>
	<g>
		<path d="M52.2,71.6L52.2,71.6c-0.8,0-1.4-0.6-1.5-1.3c-0.7-7.5-7.5-13.3-15.6-13.3s-14.9,5.9-15.6,13.3c-0.1,0.8-0.7,1.3-1.5,1.3
			h0c-0.9,0-1.6-0.8-1.5-1.6c0.9-9,8.9-16,18.6-16s17.7,7.1,18.6,16C53.8,70.8,53.1,71.6,52.2,71.6z"/>
	</g>
</g>
</svg>
