<?xml version="1.0" encoding="utf-8"?>
<!-- Generator: Adobe Illustrator 24.1.0, SVG Export Plug-In . SVG Version: 6.00 Build 0)  -->
<svg version="1.1" id="Layer_1" xmlns="http://www.w3.org/2000/svg" xmlns:xlink="http://www.w3.org/1999/xlink" x="0px" y="0px"
	 viewBox="0 0 100 100" style="enable-background:new 0 0 100 100;" xml:space="preserve">
<style type="text/css">
	.st0{fill:#231F20;}
	.st1{fill:none;stroke:#000000;stroke-width:2.5;stroke-miterlimit:10;}
</style>
<g>
	<path class="st0" d="M50,100c-6.8,0-13.3-1.3-19.5-3.9c-5.9-2.5-11.3-6.1-15.9-10.7c-4.6-4.6-8.2-9.9-10.7-15.9
		C1.3,63.3,0,56.8,0,50s1.3-13.3,3.9-19.5c2.5-5.9,6.1-11.3,10.7-15.9s9.9-8.2,15.9-10.7C36.7,1.3,43.3,0,50,0s13.3,1.3,19.5,3.9
		c5.9,2.5,11.3,6.1,15.9,10.7c4.6,4.6,8.2,9.9,10.7,15.9c2.6,6.2,3.9,12.7,3.9,19.5s-1.3,13.3-3.9,19.5c-2.5,5.9-6.1,11.3-10.7,15.9
		c-4.6,4.6-9.9,8.2-15.9,10.7C63.3,98.7,56.8,100,50,100z M50,3c-6.3,0-12.5,1.2-18.3,3.7c-5.6,2.4-10.6,5.8-14.9,10.1
		S9.1,26.1,6.7,31.7C4.3,37.5,3,43.7,3,50s1.2,12.5,3.7,18.3c2.4,5.6,5.8,10.6,10.1,14.9c4.3,4.3,9.3,7.7,14.9,10.1
		C37.5,95.8,43.7,97,50,97c6.3,0,12.5-1.2,18.3-3.7c5.6-2.4,10.6-5.8,14.9-10.1c4.3-4.3,7.7-9.3,10.1-14.9c2.5-5.8,3.7-12,3.7-18.3
		s-1.2-12.5-3.7-18.3c-2.4-5.6-5.8-10.6-10.1-14.9c-4.3-4.3-9.3-7.7-14.9-10.1C62.5,4.3,56.3,3,50,3z"/>
</g>
<g>
	<path class="st0" d="M80.9,35.1v28.2c-0.9-0.8-1.9-1.4-3-1.8V35.1c0-1.1-0.9-2-2-2H24.6c-1.1,0-2,0.9-2,2v30.4c0,1.1,0.9,2,2,2
		h34.1c0.8,0,1.5,0.7,1.5,1.5v0c0,0.8-0.7,1.5-1.5,1.5H24.6c-2.8,0-5-2.2-5-5V35.1c0-2.8,2.2-5,5-5h51.2
		C78.6,30.1,80.9,32.3,80.9,35.1z"/>
</g>
<g>
	<path class="st0" d="M67.4,39.9H46.1c-0.7,0-1.3-0.6-1.3-1.2v0c0-0.7,0.6-1.3,1.3-1.3h21.3c0.7,0,1.3,0.6,1.3,1.3v0
		C68.6,39.4,68.1,39.9,67.4,39.9z"/>
</g>
<path class="st1" d="M59.7,62.1"/>
<path class="st1" d="M44.9,62.1"/>
<g>
	<path class="st0" d="M57.8,46.2H46.1c-0.7,0-1.3-0.6-1.3-1.2v0c0-0.7,0.6-1.3,1.3-1.3h11.7c0.7,0,1.3,0.6,1.3,1.3v0
		C59.1,45.7,58.5,46.2,57.8,46.2z"/>
</g>
<g>
	<path class="st0" d="M38,37.4h-8.2c-1.9,0-3.4,1.5-3.4,3.4v12.7c0,1.9,1.5,3.4,3.4,3.4H38c1.9,0,3.4-1.5,3.4-3.4V40.8
		C41.3,38.9,39.8,37.4,38,37.4z M38.8,53.5c0,0.5-0.4,0.9-0.9,0.9h-8.2c-0.5,0-0.9-0.4-0.9-0.9V40.8c0-0.5,0.4-0.9,0.9-0.9H38
		c0.5,0,0.9,0.4,0.9,0.9V53.5z"/>
</g>
<g>
	<path class="st0" d="M86.2,71.1c-0.4,2.1-1.4,4.1-3,5.6c-2.1,2-4.8,3.2-7.7,3.2c-2.9,0-5.6-1.1-7.7-3.2c-4.2-4.2-4.2-11.1,0-15.3
		c2.7-2.7,6.5-3.7,10-2.9c1,0.2,2.1,0.6,3,1.2c0.8,0.5,1.6,1,2.3,1.8c0,0,0.1,0.1,0.1,0.1c0.5,0.6,0.4,1.4-0.1,2
		c-0.5,0.6-1.4,0.6-2,0.1c0,0-0.1-0.1-0.1-0.1c-0.1-0.1-0.1-0.1-0.2-0.2c-0.9-0.8-1.9-1.4-3-1.8c-2.7-0.8-5.8-0.2-7.9,1.9
		c-3.1,3.1-3.1,8,0,11.1c1.5,1.5,3.4,2.3,5.5,2.3c2.1,0,4.1-0.8,5.5-2.3c1.1-1.1,1.8-2.5,2.2-4c0.1-0.8,0.9-1.4,1.8-1.2
		C85.8,69.5,86.3,70.3,86.2,71.1z"/>
</g>
<g>
	<path class="st0" d="M75.2,73.2c-0.4,0-0.8-0.2-1.1-0.4L71,69.6c-0.6-0.6-0.6-1.5,0-2.1c0.6-0.6,1.5-0.6,2.1,0l2.1,2.1l9.5-9.5
		c0.6-0.6,1.5-0.6,2.1,0c0.6,0.6,0.6,1.5,0,2.1L76.3,72.8C76,73.1,75.6,73.2,75.2,73.2z"/>
</g>
</svg>
