<svg enable-background="new 0 0 300 300" viewBox="0 0 300 300" xmlns="http://www.w3.org/2000/svg"><path d="m238.5 143.5c-2.2-.8-4.4-1.7-6.7-2.4-2-.6-2.7-1.7-2.7-3.8.1-14.1.1-28.1 0-42.2-.1-12.2-2.3-23.9-7.7-34.9-11.1-22.5-28.8-37-53.2-43.1-3.9-1-7.9-1.5-11.9-2.2h-12.7c-5.1 1-10.4 1.7-15.4 3.2-18.8 5.3-33.6 16.4-44.4 32.7-9.1 13.7-13 29-13 45.4 0 13.6 0 27.3.1 40.9 0 2.3-.7 3.5-3 4.1-2.4.6-4.6 1.6-6.9 2.5-6.3 2.3-8.7 5.6-8.7 12.4v47.7 51.7c0 7.3 2.3 10.5 9 13.1 17.6 6.7 35.7 11.5 54.4 14.1 18.4 2.6 36.9 3 55.5 1.4 23.2-2 45.7-7.2 67.5-15.5 6.8-2.6 9-5.8 9-13.1v-98.9c0-7.5-2.2-10.5-9.2-13.1zm-76.1 59.3c-1.4 1-1.8 2.1-1.8 3.7.1 11.2.1 22.3 0 33.5-.1 8.2-9 13-16 8.8-3.3-1.9-5.1-4.8-5.2-8.6-.1-5.7 0-11.4 0-17.1 0-5.6.1-11.3-.1-16.9 0-1.1-.8-2.5-1.6-3.1-7.2-5.5-10.4-12.7-8.6-21.5 1.8-8.7 7.4-14.5 16.2-16.5 12.8-3 24.8 6 26 18.7.7 8-2.5 14.2-8.9 19zm39.4-73.1v3.2c-34.6-7.3-68.8-7.3-103.4 0-.1-1.1-.2-1.9-.2-2.7 0-12-.1-23.9 0-35.9.1-25.1 16.9-45.6 41.3-51 28.9-6.3 58 14.4 61.6 43.7.3 2.7.5 5.4.5 8.1.2 11.5.2 23 .2 34.6z" fill="#fff"/></svg>