<svg enable-background="new 0 0 300 300" viewBox="0 0 300 300" xmlns="http://www.w3.org/2000/svg"><path d="m557.6-1075.7h977.5v530.7h-977.5z" fill="#d89728"/><path d="m290.5 148.4c-9.5-10.6-18.9-21.1-28.5-31.6-1.7-1.8-2.2-3.6-1.9-5.9 1.1-9.3 2.1-18.5 3-27.8.5-4.8 1-9.6 1.4-14.5.1-1.2-.7-2.3-1.9-2.6-11.2-2.4-22-5.3-33-6.8-8.6-1.2-14-4.8-17.8-12.7-4.9-10.2-11.1-19.8-16.8-29.7-.6-1-1.9-1.5-3-1-.5.2-1 .4-1.5.7-12.7 5.7-25.4 11.4-38.1 16.9-1.3.6-3.2.6-4.5 0-8.3-3.5-16.4-7.2-24.6-10.9-5-2.2-10-4.5-15-6.7-1.1-.5-2.5-.1-3.1 1-7.4 12.7-14.5 25-21.7 37.2-.8 1.4-2.6 2.7-4.1 3-13.8 3.1-27.7 6-42.1 9.1-1.2.3-2 1.4-1.9 2.6.3 3 .6 5.9.9 8.7 1.2 11.3 2.4 22.7 3.6 34 .2 2.2-.5 3.7-1.9 5.2-8.2 9-16.3 18.1-24.5 27.1-1.3 1.5-2.7 3-4 4.5-.8.9-.8 2.3 0 3.2 9.6 10.6 18.9 21.1 28.3 31.4 1.6 1.8 2.3 3.5 2.1 5.8-1.1 9.2-2.1 18.5-3 27.8-.5 4.8-1 9.7-1.5 14.6-.1 1.2.7 2.3 1.9 2.6 14.2 3 28.2 6 42.1 9.1 1.5.3 3.3 1.7 4.1 3.1 5.8 9.8 11.5 19.7 17.1 29.6 1.4 2.5 2.9 5 4.4 7.5.6 1.1 1.9 1.5 3.1 1 10.5-4.6 21-8.7 30.9-14 7.8-4.2 14.3-4.1 22.2.1 9.9 5.3 20.4 9.4 30.7 13.9 1.1.5 2.4.1 3-1 .3-.5.6-1 .9-1.5 6.8-11.8 13.6-23.5 20.3-35.4 1.2-2.1 2.5-3.2 4.9-3.7 7.1-1.3 14.2-2.9 21.2-4.4 6.8-1.4 13.5-2.9 20.4-4.4 1.2-.3 2-1.4 1.9-2.6-.3-3-.6-5.8-.9-8.6-1.2-11.4-2.5-22.9-3.5-34.4-.1-1.5.6-3.4 1.5-4.6 4.3-5 8.8-9.8 13.2-14.7 5.2-5.8 10.4-11.5 15.6-17.4.9-.5.9-1.9.1-2.8zm-80-23.9c-10.7 12-21.4 24-32 35.9-13.5 15.2-27 30.3-40.5 45.4-.9 1-2.5 1.1-3.5.1-16.8-16.8-33.5-33.5-49.9-49.9-3.6-3.6-3.6-9.5 0-13.1s.1-.1.1-.1c3.5-3.5 9.2-3.7 12.8-.4.1.1.2.2.3.3l14.8 14.8c1.7 1.7 3.3 3.3 5 5 2.5 2.5 5.1 5.1 7.6 7.7 1.5 1.5 3.1 3.1 4.7 4.7l2.9 2.9c1 1 2.6.9 3.5-.1 2.9-3.2 5.7-6.4 8.6-9.6s5.7-6.4 8.5-9.6c15.4-17.2 30.6-34.3 45.9-51.4 3.6-4.1 9.8-4.4 13.9-.8l.1.1c4 3.6 4.4 9.8.7 13.9-1 1.5-2.2 2.9-3.5 4.2z" fill="#d89728"/><path d="m214.2 120.4c-1.2 1.4-2.4 2.7-3.7 4.1-10.7 12-21.4 24-32 35.9-13.5 15.2-27 30.3-40.5 45.4-.6.6-1.1 1.3-1.7 1.9-.6-.6-1.2-1.2-1.8-1.8-16.8-16.8-33.5-33.5-49.9-49.9-3.6-3.6-3.6-9.5 0-13.1s.1-.1.1-.1c3.5-3.5 9.2-3.7 12.8-.4.1.1.2.2.3.3l14.8 14.8c1.7 1.7 3.3 3.3 5 5 2.5 2.5 5.1 5.1 7.6 7.7 1.6 1.5 3.1 3.1 4.7 4.7l4.7 4.7c.6-.6 1.1-1.3 1.7-1.9 2.9-3.2 5.7-6.4 8.6-9.6s5.7-6.4 8.5-9.6c15.4-17.2 30.6-34.3 45.9-51.4 3.6-4.1 9.8-4.4 13.9-.8l.1.1c4.2 3.8 4.5 10 .9 14z" fill="#fff"/></svg>