<?xml version="1.0" encoding="utf-8"?>
<!-- Generator: Adobe Illustrator 24.1.0, SVG Export Plug-In . SVG Version: 6.00 Build 0)  -->
<svg version="1.1" id="Layer_1" xmlns="http://www.w3.org/2000/svg" xmlns:xlink="http://www.w3.org/1999/xlink" x="0px" y="0px"
	 viewBox="0 0 100 100" style="enable-background:new 0 0 100 100;" xml:space="preserve">
<style type="text/css">
	.st0{fill:#E5A800;}
	.st1{fill:#FFFFFF;}
</style>
<g>
	<path class="st0" d="M96.1,30.5c-2.5-6-6.1-11.3-10.7-15.9c-4.6-4.6-10-8.2-15.9-10.7C63.3,1.3,56.7,0,50,0S36.7,1.3,30.5,3.9
		c-6,2.5-11.3,6.1-15.9,10.7c-4.6,4.6-8.2,10-10.7,15.9C1.3,36.7,0,43.2,0,50s1.3,13.3,3.9,19.5c2.5,6,6.1,11.3,10.7,15.9
		c4.6,4.6,10,8.2,15.9,10.7c6.2,2.6,12.7,3.9,19.5,3.9s13.3-1.3,19.5-3.9c6-2.5,11.3-6.1,15.9-10.7c4.6-4.6,8.2-10,10.7-15.9
		c2.6-6.2,3.9-12.7,3.9-19.5S98.7,36.7,96.1,30.5z M93.3,68.3c-2.4,5.6-5.8,10.6-10.1,14.9s-9.3,7.7-14.9,10.1
		C62.5,95.8,56.3,97,50,97s-12.5-1.2-18.3-3.7c-5.6-2.4-10.6-5.8-14.9-10.1S9.1,73.9,6.7,68.3C4.2,62.5,3,56.3,3,50
		s1.3-12.5,3.7-18.3c2.4-5.6,5.8-10.6,10.1-14.9s9.3-7.7,14.9-10.1C37.5,4.2,43.7,3,50,3s12.5,1.3,18.3,3.7
		c5.6,2.4,10.6,5.8,14.9,10.1s7.7,9.3,10.1,14.9c2.5,5.8,3.7,12,3.7,18.3S95.8,62.5,93.3,68.3z"/>
	<path class="st0" d="M93.3,31.7c-2.4-5.6-5.8-10.6-10.1-14.9S73.9,9.1,68.3,6.7C62.5,4.3,56.3,3,50,3S37.5,4.2,31.7,6.7
		c-5.6,2.4-10.6,5.8-14.9,10.1S9.1,26.1,6.7,31.7C4.3,37.5,3,43.7,3,50s1.2,12.5,3.7,18.3c2.4,5.6,5.8,10.6,10.1,14.9
		s9.3,7.7,14.9,10.1c5.8,2.5,12,3.7,18.3,3.7s12.5-1.2,18.3-3.7c5.6-2.4,10.6-5.8,14.9-10.1s7.7-9.3,10.1-14.9
		c2.5-5.8,3.7-12,3.7-18.3S95.8,37.5,93.3,31.7z M78.9,68.7c0,2.7-2.2,4.9-4.9,4.9H26c-2.7,0-4.9-2.2-4.9-4.9V30.4c0-2.2,1.8-4,4-4
		h44.6c2.2,0,4,1.8,4,4v2.7H74c2.7,0,4.8,2.1,4.9,4.9V68.7z"/>
</g>
<path class="st1" d="M74,33.1h-0.3v-2.7c0-2.2-1.8-4-4-4H25.1c-2.2,0-4,1.8-4,4v38.3c0,2.7,2.2,4.9,4.9,4.9h48
	c2.7,0,4.9-2.2,4.9-4.9V38C78.8,35.2,76.7,33.1,74,33.1z M76.4,46.7h-7c-2.5,0-4.6,2.1-4.6,4.6v3.2c0,2.5,2.1,4.6,4.6,4.6h7v9.6
	c-0.1,1.3-1.1,2.4-2.4,2.4H26c-1.3,0-2.4-1.1-2.4-2.4V35.3c0.4,0.2,0.9,0.3,1.5,0.3h4c0.7,0,1.3-0.6,1.3-1.3S29.8,33,29.1,33h-4.3
	c-0.2,0-0.4-0.1-0.5-0.2c-0.2-0.1-0.3-0.2-0.4-0.4c-0.1-0.1-0.2-0.3-0.2-0.5v-1.5c0-0.8,0.7-1.5,1.5-1.5h44.5c0.8,0,1.5,0.7,1.5,1.5
	v2.7H36c-0.7,0-1.3,0.6-1.3,1.3c0,0.7,0.6,1.3,1.3,1.3h38c1.3,0,2.4,1.1,2.4,2.4V46.7z M76.3,49.2v7.4h-7c-1.2,0-2.1-1-2.1-2.1v-3.2
	c0-1.2,1-2.1,2.1-2.1H76.3z"/>
<path class="st0" d="M76.3,49.2v7.4h-7c-1.2,0-2.1-1-2.1-2.1v-3.2c0-1.2,1-2.1,2.1-2.1H76.3z"/>
<path class="st0" d="M64.8,51.3v3.2c0,2.5,2.1,4.6,4.6,4.6h7v9.6c-0.1,1.3-1.1,2.4-2.4,2.4H26c-1.3,0-2.4-1.1-2.4-2.4V35.3
	c0.4,0.2,0.9,0.3,1.5,0.3h4c0.7,0,1.3-0.6,1.3-1.3S29.8,33,29.1,33h-4.3c-0.2,0-0.4-0.1-0.5-0.2c-0.2-0.1-0.3-0.2-0.4-0.4
	c-0.1-0.1-0.2-0.3-0.2-0.5v-1.5c0-0.8,0.7-1.5,1.5-1.5h44.5c0.8,0,1.5,0.7,1.5,1.5v2.7H36c-0.7,0-1.3,0.6-1.3,1.3
	c0,0.7,0.6,1.3,1.3,1.3h38c1.3,0,2.4,1.1,2.4,2.4v8.6h-7C66.9,46.7,64.8,48.8,64.8,51.3z"/>
</svg>
