<?xml version="1.0" encoding="utf-8"?>
<!-- Generator: Adobe Illustrator 24.1.0, SVG Export Plug-In . SVG Version: 6.00 Build 0)  -->
<svg version="1.1" id="Layer_1" xmlns="http://www.w3.org/2000/svg" xmlns:xlink="http://www.w3.org/1999/xlink" x="0px" y="0px"
	 viewBox="0 0 100 100" style="enable-background:new 0 0 100 100;" xml:space="preserve">
<style type="text/css">
	.st0{fill:#FFFFFF;}
</style>
<path class="st0" d="M88.6,46.3l-4.5-5c-1-1.2-1.5-2.7-1.4-4.3l0.7-6.8c0.3-2.8-1.6-5.4-4.3-5.9l-6.6-1.4c-1.5-0.3-2.8-1.3-3.6-2.6
	l-3.4-5.9C64,12,61,11,58.4,12.1l-6.2,2.8c-1.4,0.6-3.1,0.6-4.5,0l-6.2-2.8C39,11,36,12,34.6,14.4l-3.4,5.9
	c-0.8,1.4-2.1,2.3-3.6,2.6l-6.6,1.4c-2.8,0.6-4.6,3.2-4.3,5.9l0.7,6.8c0.2,1.5-0.3,3.1-1.4,4.3l-4.5,5c-1.9,2.1-1.9,5.3,0,7.4l4.5,5
	c1,1.2,1.5,2.7,1.4,4.3l-0.7,6.7c-0.3,2.8,1.6,5.4,4.3,6l6.6,1.4c1.5,0.3,2.8,1.3,3.6,2.6l3.4,5.9c1.4,2.4,4.4,3.4,7,2.3l6.2-2.8
	c1.4-0.6,3.1-0.6,4.5,0l6.2,2.8c2.6,1.2,5.6,0.2,7-2.3l3.4-5.9c0.8-1.4,2.1-2.3,3.6-2.6l6.6-1.4c2.8-0.6,4.6-3.2,4.3-6L82.7,63
	c-0.2-1.5,0.3-3.1,1.4-4.3l4.5-5C90.5,51.6,90.5,48.4,88.6,46.3z M65.9,42.7L46.5,64.4L33.6,51.5c-1-1-1-2.5,0-3.5l0,0
	c1-1,2.5-1,3.5,0l9.2,9.2l15.9-17.8c0.9-1,2.5-1.1,3.5-0.2v0C66.8,40.1,66.9,41.7,65.9,42.7z"/>
</svg>
