<?xml version="1.0" encoding="utf-8"?>
<!-- Generator: Adobe Illustrator 24.1.0, SVG Export Plug-In . SVG Version: 6.00 Build 0)  -->
<svg version="1.1" id="Layer_1" xmlns="http://www.w3.org/2000/svg" xmlns:xlink="http://www.w3.org/1999/xlink" x="0px" y="0px"
	 viewBox="0 0 100 100" style="enable-background:new 0 0 100 100;" xml:space="preserve">
<style type="text/css">
	.st0{fill:#E5A800;}
	.st1{fill:#FFFFFF;}
</style>
<g>
	<path class="st0" d="M96.1,30.5c-2.5-6-6.1-11.3-10.7-15.9c-4.6-4.6-10-8.2-15.9-10.7C63.3,1.3,56.7,0,50,0S36.7,1.3,30.5,3.9
		c-6,2.5-11.3,6.1-15.9,10.7c-4.6,4.6-8.2,10-10.7,15.9C1.3,36.7,0,43.2,0,50s1.3,13.3,3.9,19.5c2.5,6,6.1,11.3,10.7,15.9
		c4.6,4.6,10,8.2,15.9,10.7c6.2,2.6,12.7,3.9,19.5,3.9s13.3-1.3,19.5-3.9c6-2.5,11.3-6.1,15.9-10.7c4.6-4.6,8.2-10,10.7-15.9
		c2.6-6.2,3.9-12.7,3.9-19.5S98.7,36.7,96.1,30.5z M93.3,68.3c-2.4,5.6-5.8,10.6-10.1,14.9s-9.3,7.7-14.9,10.1
		C62.5,95.8,56.3,97,50,97s-12.5-1.2-18.3-3.7c-5.6-2.4-10.6-5.8-14.9-10.1S9.1,73.9,6.7,68.3C4.2,62.5,3,56.3,3,50
		s1.3-12.5,3.7-18.3c2.4-5.6,5.8-10.6,10.1-14.9s9.3-7.7,14.9-10.1C37.5,4.2,43.7,3,50,3s12.5,1.3,18.3,3.7
		c5.6,2.4,10.6,5.8,14.9,10.1s7.7,9.3,10.1,14.9c2.5,5.8,3.7,12,3.7,18.3S95.8,62.5,93.3,68.3z"/>
	<path class="st0" d="M93.3,31.7c-2.4-5.6-5.8-10.6-10.1-14.9S73.9,9.1,68.3,6.7C62.5,4.3,56.3,3,50,3S37.5,4.2,31.7,6.7
		c-5.6,2.4-10.6,5.8-14.9,10.1S9.1,26.1,6.7,31.7C4.3,37.5,3,43.7,3,50s1.2,12.5,3.7,18.3c2.4,5.6,5.8,10.6,10.1,14.9
		s9.3,7.7,14.9,10.1c5.8,2.5,12,3.7,18.3,3.7s12.5-1.2,18.3-3.7c5.6-2.4,10.6-5.8,14.9-10.1s7.7-9.3,10.1-14.9
		c2.5-5.8,3.7-12,3.7-18.3S95.8,37.5,93.3,31.7z M86.8,62.2L76.3,72.8c-0.3,0.3-0.7,0.4-1.1,0.4c-0.4,0-0.8-0.2-1.1-0.4L71,69.6
		c-0.6-0.6-0.6-1.5,0-2.1s1.5-0.6,2.1,0l2.1,2.1l5.9-5.9L81,63.6c-0.1-0.1-0.1-0.1-0.2-0.2c-0.9-0.8-1.9-1.4-3-1.8
		c-2.7-0.8-5.8-0.2-7.9,1.9c-3.1,3.1-3.1,8,0,11.1c1.5,1.5,3.4,2.3,5.5,2.3c2.1,0,4.1-0.8,5.5-2.3c1.1-1.1,1.8-2.5,2.2-4
		c0.1-0.8,0.9-1.4,1.8-1.2c0.9,0.1,1.4,0.9,1.3,1.7c-0.4,2.1-1.4,4.1-3,5.6c-2.1,2-4.8,3.2-7.7,3.2s-5.6-1.1-7.7-3.2
		c-4.2-4.2-4.2-11.1,0-15.3c2.7-2.7,6.5-3.7,10-2.9h0.1V35.1c0-1.1-0.9-2-2-2H24.6c-1.1,0-2,0.9-2,2v30.4c0,1.1,0.9,2,2,2h34.1
		c0.8,0,1.5,0.7,1.5,1.5s-0.7,1.5-1.5,1.5H24.6c-2.8,0-5-2.2-5-5V35.1c0-2.8,2.2-5,5-5h51.2c2.8,0,5.1,2.2,5.1,5v24.7
		c0.8,0.4,1.5,0.9,2.2,1.7l0.1,0.1l1.5-1.5c0.6-0.6,1.5-0.6,2.1,0C87.4,60.7,87.4,61.6,86.8,62.2z M46.1,39.9
		c-0.7,0-1.3-0.6-1.3-1.2c0-0.7,0.6-1.3,1.3-1.3h21.3c0.7,0,1.3,0.6,1.3,1.3c-0.1,0.7-0.6,1.2-1.3,1.2H46.1z M59.1,45
		c0,0.7-0.6,1.2-1.3,1.2H46.1c-0.7,0-1.3-0.6-1.3-1.2c0-0.7,0.6-1.3,1.3-1.3h11.7C58.5,43.7,59.1,44.3,59.1,45z M41.4,40.8v12.7
		c0,1.9-1.5,3.4-3.4,3.4h-8.2c-1.9,0-3.4-1.5-3.4-3.4V40.8c0-1.9,1.5-3.4,3.4-3.4H38C39.8,37.4,41.3,38.9,41.4,40.8z"/>
	<path class="st1" d="M68.7,38.7c-0.1,0.7-0.6,1.2-1.3,1.2H46.1c-0.7,0-1.3-0.6-1.3-1.2c0-0.7,0.6-1.3,1.3-1.3h21.3
		C68.1,37.4,68.7,38,68.7,38.7z"/>
	<path class="st1" d="M59.1,45c0,0.7-0.6,1.2-1.3,1.2H46.1c-0.7,0-1.3-0.6-1.3-1.2c0-0.7,0.6-1.3,1.3-1.3h11.7
		C58.5,43.7,59.1,44.3,59.1,45z"/>
	<path class="st1" d="M38,37.4h-8.2c-1.9,0-3.4,1.5-3.4,3.4v12.7c0,1.9,1.5,3.4,3.4,3.4H38c1.9,0,3.4-1.5,3.4-3.4V40.8
		C41.3,38.9,39.8,37.4,38,37.4z M38.9,53.5h-0.1c0,0.5-0.4,0.9-0.9,0.9h-8.2c-0.5,0-0.9-0.4-0.9-0.9V40.8c0-0.5,0.4-0.9,0.9-0.9H38
		c0.5,0,0.9,0.4,0.9,0.9V53.5z"/>
	<path class="st0" d="M38.9,40.8v12.7h-0.1c0,0.5-0.4,0.9-0.9,0.9h-8.2c-0.5,0-0.9-0.4-0.9-0.9V40.8c0-0.5,0.4-0.9,0.9-0.9H38
		C38.5,39.9,38.9,40.3,38.9,40.8z"/>
	<path class="st1" d="M75.2,69.6l5.9-5.9L81,63.6c-0.1-0.1-0.1-0.1-0.2-0.2c-0.9-0.8-1.9-1.4-3-1.8c-2.7-0.8-5.8-0.2-7.9,1.9
		c-3.1,3.1-3.1,8,0,11.1c1.5,1.5,3.4,2.3,5.5,2.3c2.1,0,4.1-0.8,5.5-2.3c1.1-1.1,1.8-2.5,2.2-4c0.1-0.8,0.9-1.4,1.8-1.2
		c0.9,0.1,1.4,0.9,1.3,1.7c-0.4,2.1-1.4,4.1-3,5.6c-2.1,2-4.8,3.2-7.7,3.2s-5.6-1.1-7.7-3.2c-4.2-4.2-4.2-11.1,0-15.3
		c2.7-2.7,6.5-3.7,10-2.9h0.1V35.1c0-1.1-0.9-2-2-2H24.6c-1.1,0-2,0.9-2,2v30.4c0,1.1,0.9,2,2,2h34.1c0.8,0,1.5,0.7,1.5,1.5
		s-0.7,1.5-1.5,1.5H24.6c-2.8,0-5-2.2-5-5V35.1c0-2.8,2.2-5,5-5h51.2c2.8,0,5.1,2.2,5.1,5v24.7c0.8,0.4,1.5,0.9,2.2,1.7l0.1,0.1
		l1.5-1.5c0.6-0.6,1.5-0.6,2.1,0c0.6,0.6,0.6,1.5,0,2.1L76.3,72.8c-0.3,0.3-0.7,0.4-1.1,0.4c-0.4,0-0.8-0.2-1.1-0.4L71,69.6
		c-0.6-0.6-0.6-1.5,0-2.1s1.5-0.6,2.1,0L75.2,69.6z"/>
</g>
</svg>
