<?xml version="1.0" encoding="utf-8"?>
<!-- Generator: Adobe Illustrator 24.1.0, SVG Export Plug-In . SVG Version: 6.00 Build 0)  -->
<svg version="1.1" id="Layer_1" xmlns="http://www.w3.org/2000/svg" xmlns:xlink="http://www.w3.org/1999/xlink" x="0px" y="0px"
	 viewBox="0 0 100 100" style="enable-background:new 0 0 100 100;" xml:space="preserve">
<style type="text/css">
	.st0{fill:#231F20;}
</style>
<g>
	<path class="st0" d="M50,100c-6.8,0-13.3-1.3-19.5-3.9c-5.9-2.5-11.3-6.1-15.9-10.7c-4.6-4.6-8.2-9.9-10.7-15.9
		C1.3,63.3,0,56.8,0,50s1.3-13.3,3.9-19.5c2.5-5.9,6.1-11.3,10.7-15.9s9.9-8.2,15.9-10.7C36.7,1.3,43.3,0,50,0s13.3,1.3,19.5,3.9
		c5.9,2.5,11.3,6.1,15.9,10.7c4.6,4.6,8.2,9.9,10.7,15.9c2.6,6.2,3.9,12.7,3.9,19.5s-1.3,13.3-3.9,19.5c-2.5,5.9-6.1,11.3-10.7,15.9
		c-4.6,4.6-9.9,8.2-15.9,10.7C63.3,98.7,56.8,100,50,100z M50,3c-6.3,0-12.5,1.2-18.3,3.7c-5.6,2.4-10.6,5.8-14.9,10.1
		S9.1,26.1,6.7,31.7C4.3,37.5,3,43.7,3,50s1.2,12.5,3.7,18.3c2.4,5.6,5.8,10.6,10.1,14.9c4.3,4.3,9.3,7.7,14.9,10.1
		C37.5,95.8,43.7,97,50,97c6.3,0,12.5-1.2,18.3-3.7c5.6-2.4,10.6-5.8,14.9-10.1c4.3-4.3,7.7-9.3,10.1-14.9c2.5-5.8,3.7-12,3.7-18.3
		s-1.2-12.5-3.7-18.3c-2.4-5.6-5.8-10.6-10.1-14.9c-4.3-4.3-9.3-7.7-14.9-10.1C62.5,4.3,56.3,3,50,3z"/>
</g>
<g>
	<g>
		<path class="st0" d="M58.5,49.4H37.2c-0.7,0-1.3-0.6-1.3-1.3l0,0c0-0.7,0.6-1.3,1.3-1.3h21.3c0.7,0,1.3,0.6,1.3,1.3l0,0
			C59.7,48.8,59.2,49.4,58.5,49.4z"/>
	</g>
	<g>
		<path class="st0" d="M48.9,55.7H37.2c-0.7,0-1.3-0.6-1.3-1.3l0,0c0-0.7,0.6-1.3,1.3-1.3h11.7c0.7,0,1.3,0.6,1.3,1.3l0,0
			C50.2,55.1,49.6,55.7,48.9,55.7z"/>
	</g>
	<path class="st0" d="M61.2,25.6c-1.1-1.1-2.5-1.7-4.1-1.7H43.4c-0.8,0-1.5,0.7-1.5,1.5s0.7,1.5,1.5,1.5h14v11.7h11.7v31.6
		c0,1.5-1.2,2.8-2.8,2.8H33.7c-1.5,0-2.8-1.2-2.8-2.8V29.7c0-1.5,1.2-2.8,2.8-2.8H36c0.8,0,1.5-0.7,1.5-1.5S36.8,24,36,24h-2.3
		c-3.2,0-5.8,2.6-5.8,5.8v40.6c0,3.2,2.6,5.8,5.8,5.8h32.6c3.2,0,5.8-2.6,5.8-5.8V38.9c0-1.5-0.6-3-1.7-4.1L61.2,25.6z M60.4,29.1
		l6.6,6.6h-6.6V29.1z"/>
</g>
</svg>
