<?xml version="1.0" encoding="utf-8"?>
<!-- Generator: Adobe Illustrator 24.1.0, SVG Export Plug-In . SVG Version: 6.00 Build 0)  -->
<svg version="1.1" id="Layer_1" xmlns="http://www.w3.org/2000/svg" xmlns:xlink="http://www.w3.org/1999/xlink" x="0px" y="0px"
	 viewBox="0 0 100 100" style="enable-background:new 0 0 100 100;" xml:space="preserve">
<style type="text/css">
	.st0{fill:#E5A800;}
	.st1{fill:#FFFFFF;}
</style>
<g>
	<path class="st0" d="M96.1,30.5c-2.5-6-6.1-11.3-10.7-15.9c-4.6-4.6-10-8.2-15.9-10.7C63.3,1.3,56.7,0,50,0S36.7,1.3,30.5,3.9
		c-6,2.5-11.3,6.1-15.9,10.7c-4.6,4.6-8.2,10-10.7,15.9C1.3,36.7,0,43.2,0,50s1.3,13.3,3.9,19.5c2.5,6,6.1,11.3,10.7,15.9
		c4.6,4.6,10,8.2,15.9,10.7c6.2,2.6,12.7,3.9,19.5,3.9s13.3-1.3,19.5-3.9c6-2.5,11.3-6.1,15.9-10.7c4.6-4.6,8.2-10,10.7-15.9
		c2.6-6.2,3.9-12.7,3.9-19.5S98.7,36.7,96.1,30.5z M93.3,68.3c-2.4,5.6-5.8,10.6-10.1,14.9s-9.3,7.7-14.9,10.1
		C62.5,95.8,56.3,97,50,97s-12.5-1.2-18.3-3.7c-5.6-2.4-10.6-5.8-14.9-10.1S9.1,73.9,6.7,68.3C4.2,62.5,3,56.3,3,50
		s1.3-12.5,3.7-18.3c2.4-5.6,5.8-10.6,10.1-14.9s9.3-7.7,14.9-10.1C37.5,4.2,43.7,3,50,3s12.5,1.3,18.3,3.7
		c5.6,2.4,10.6,5.8,14.9,10.1s7.7,9.3,10.1,14.9c2.5,5.8,3.7,12,3.7,18.3S95.8,62.5,93.3,68.3z"/>
	<path class="st0" d="M93.3,31.7c-2.4-5.6-5.8-10.6-10.1-14.9S73.9,9.1,68.3,6.7C62.5,4.3,56.3,3,50,3S37.5,4.2,31.7,6.7
		c-5.6,2.4-10.6,5.8-14.9,10.1S9.1,26.1,6.7,31.7C4.3,37.5,3,43.7,3,50s1.2,12.5,3.7,18.3c2.4,5.6,5.8,10.6,10.1,14.9
		s9.3,7.7,14.9,10.1c5.8,2.5,12,3.7,18.3,3.7s12.5-1.2,18.3-3.7c5.6-2.4,10.6-5.8,14.9-10.1s7.7-9.3,10.1-14.9
		c2.5-5.8,3.7-12,3.7-18.3S95.8,37.5,93.3,31.7z M72.1,70.4c0,3.2-2.6,5.8-5.8,5.8H33.7c-3.2,0-5.8-2.6-5.8-5.8V29.8
		c0-3.2,2.6-5.8,5.8-5.8H36c0.8,0,1.5,0.6,1.5,1.4c0,0.8-0.7,1.5-1.5,1.5h-2.3c-1.6,0-2.8,1.3-2.8,2.8v40.5c0,1.6,1.3,2.8,2.8,2.8
		h32.6c1.6,0,2.8-1.3,2.8-2.8V38.6H57.4V26.9h-14c-0.8,0-1.5-0.7-1.5-1.5c0-0.8,0.7-1.5,1.5-1.5h13.7c1.6,0,3,0.6,4.1,1.7l9.2,9.2
		c1.1,1.1,1.7,2.6,1.7,4.1V70.4z M37.2,49.4c-0.7,0-1.3-0.6-1.3-1.3c0-0.7,0.6-1.3,1.3-1.3h21.3c0.7,0,1.3,0.6,1.3,1.3
		c-0.1,0.7-0.6,1.3-1.3,1.3H37.2z M50.2,54.4c0,0.7-0.6,1.3-1.3,1.3H37.2c-0.7,0-1.3-0.6-1.3-1.3c0-0.7,0.6-1.3,1.3-1.3h11.7
		C49.6,53.1,50.2,53.7,50.2,54.4z"/>
</g>
<g>
	<g>
		<path class="st1" d="M59.8,48.1c-0.1,0.7-0.6,1.3-1.3,1.3H37.2c-0.7,0-1.3-0.6-1.3-1.3c0-0.7,0.6-1.3,1.3-1.3h21.3
			C59.2,46.8,59.8,47.4,59.8,48.1z"/>
	</g>
	<g>
		<path class="st1" d="M50.2,54.4c0,0.7-0.6,1.3-1.3,1.3H37.2c-0.7,0-1.3-0.6-1.3-1.3c0-0.7,0.6-1.3,1.3-1.3h11.7
			C49.6,53.1,50.2,53.7,50.2,54.4z"/>
	</g>
	<path class="st1" d="M70.4,34.8l-9.2-9.2c-1.1-1.1-2.5-1.7-4.1-1.7H43.4c-0.8,0-1.5,0.7-1.5,1.5c0,0.8,0.7,1.5,1.5,1.5h14v11.7
		h11.7v31.6c0,1.5-1.2,2.8-2.8,2.8H33.7c-1.5,0-2.8-1.2-2.8-2.8V29.7c0-1.5,1.2-2.8,2.8-2.8H36c0.8,0,1.5-0.7,1.5-1.5
		c0-0.8-0.7-1.4-1.5-1.4h-2.3c-3.2,0-5.8,2.6-5.8,5.8v40.6c0,3.2,2.6,5.8,5.8,5.8h32.6c3.2,0,5.8-2.6,5.8-5.8V38.9
		C72.1,37.4,71.5,35.9,70.4,34.8z M60.4,35.7v-6.6l6.6,6.6H60.4z"/>
	<polygon class="st0" points="67,35.7 60.4,35.7 60.4,29.1 	"/>
</g>
</svg>
