<?xml version="1.0" encoding="utf-8"?>
<!-- Generator: Adobe Illustrator 24.1.0, SVG Export Plug-In . SVG Version: 6.00 Build 0)  -->
<svg version="1.1" id="Layer_1" xmlns="http://www.w3.org/2000/svg" xmlns:xlink="http://www.w3.org/1999/xlink" x="0px" y="0px"
	 viewBox="0 0 120 120" style="enable-background:new 0 0 120 120;" xml:space="preserve">
<style type="text/css">
	.st0{fill:#FFFFFF;}
	.st1{fill:#E5A800;}
</style>
<circle class="st0" cx="59.9" cy="59.9" r="48.6"/>
<g>
	<path class="st1" d="M56.1,90.2c-1.2-1.1-2.3-2.5-3.3-4c-1,1.5-2,2.8-3.1,3.9c1,0.4,2.1,0.7,3.2,0.9C54,90.9,55.1,90.6,56.1,90.2z"
		/>
	<path class="st1" d="M35.3,76.6c-1.1-3.6-1.9-7.4-2.1-10.9c-0.1-1.7-0.1-2.9,0-3.9H24c-0.2,1-0.3,3.1,0.1,6.2
		c0.6,4.2,1.9,8.7,3.6,12.4c4,8.4,8.8,10.3,12.1,10.5h0.1c0.1,0,0.3,0,0.5,0c0,0,0,0,0.1,0h3.7C40.4,87.9,37.3,83,35.3,76.6z"/>
	<path class="st1" d="M67.9,44.8c-0.4-0.8-1.1-1.7-1.9-1.7c-0.1,0-0.3,0-0.4,0.1l0,0c-0.4,0.1-0.8,0.5-1.2,1.1
		c-1.6,2.3-2.6,7-2.6,12.7c0,6.3,1,12.8,3,18.4l0,0c0.2,0.5,0.4,1.1,0.6,1.6c0.2,0.4,0.3,0.8,0.5,1.2c0.1,0.1,0.1,0.3,0.2,0.4
		c2.2-5,3.7-11.2,4.1-17.5C70.5,54.1,69.7,47.9,67.9,44.8z"/>
	<path class="st1" d="M90.8,81c3.5-6.8,5.4-15.9,5.4-25.7c0-8.4-1.5-16.5-4.2-23c-1-2.3-2-3-2.4-3.3h-8.1c0.3,0.6,0.7,1.2,1,1.9
		c2.9,7,4.4,15.4,4.4,24.3c0,12.1-3.5,27.5-11,34.9c1,0.4,2.1,0.7,3.2,0.7C83.4,90.9,87.6,87.4,90.8,81z"/>
	<path class="st1" d="M60,0C26.9,0,0,26.9,0,60s26.9,60,60,60s60-26.9,60-60S93.1,0,60,0z M94.1,82.7c-3.9,7.6-9.1,11.8-14.8,12
		h-0.1l0,0c-0.1,0-0.1,0-0.2,0H66.2h-0.1H66c-2.3,0-4.5-0.7-6.7-2c-2,1.3-4.2,1.9-6.4,2l0,0l0,0c-0.1,0-0.2,0-0.2,0h-0.1H40.5
		c-0.1,0-0.2,0-0.4,0c-0.1,0-0.2,0-0.3,0h-0.1c-0.1,0-0.2,0-0.3,0c-3.3-0.2-6.3-1.6-9.1-4.1c-2.3-2.1-4.4-5-6.1-8.6
		c-1.9-4.1-3.3-8.8-3.9-13.4c-0.3-2.7-0.7-7.5,0.9-9.6c0.3-0.5,0.9-0.8,1.5-0.8h12.9c0.8,0,1.5,0.5,1.7,1.2c0.3,0.6,0.1,1.4-0.3,1.9
		c-0.2,0.6-0.5,3.1,0.1,7.4c0.4,2.6,1.5,7.8,4,12.7c1.5,2.9,3.3,5.1,5.2,6.7c1.5-1.4,2.9-3.3,4.2-5.6c-0.7-1.5-1.4-3.1-2-4.7
		C46.3,71.1,45,63.4,45,55.3c0-6.7,2.9-15.9,7.6-15.9H66l0,0c1.4,0,3.5,0.6,5.2,3.5c2.2,3.8,3.2,10.7,2.7,18.4
		c-0.5,7.9-2.6,15.4-5.7,21.3c1.5,2.3,3,4.2,4.6,5.6c3-2.7,5.6-7.2,7.5-13.1c1.9-6,3-13.2,3-19.7c0-8.3-1.5-16.5-4.1-22.9
		c-1.1-2.6-2.3-3.3-2.5-3.4c-0.9-0.1-1.5-1-1.5-1.9c0.1-1,1-1.7,2-1.7h13c0.1,0,0.3,0,0.4,0.1c0.5,0.1,3,0.9,5,5.5l0,0
		c2.9,7,4.4,15.4,4.4,24.4C99.9,65.6,97.8,75.4,94.1,82.7z"/>
	<path class="st1" d="M64.3,83.5c-1.2-2-2.2-4.3-3.1-6.9l0,0c-0.2-0.6-0.4-1.2-0.6-1.8c-0.1-0.2-0.1-0.5-0.2-0.7
		c-0.2-0.6-0.3-1.2-0.5-1.8c-0.1-0.3-0.1-0.5-0.2-0.8c-0.1-0.6-0.3-1.2-0.4-1.8c-0.1-0.3-0.1-0.6-0.2-0.9c-0.1-0.6-0.2-1.2-0.3-1.8
		c-0.1-0.5-0.1-0.9-0.2-1.4c-0.1-0.7-0.2-1.5-0.3-2.2c-0.1-0.6-0.1-1.2-0.2-1.8c0-0.1,0-0.3,0-0.4c-0.2-3-0.2-5.9,0.1-8.5
		c0-0.1,0-0.1,0-0.2c0-0.5,0.1-1,0.2-1.5c0-0.1,0-0.3,0-0.4c0.1-0.5,0.1-0.9,0.2-1.4c0-0.2,0.1-0.4,0.1-0.6c0.1-0.4,0.2-0.7,0.2-1.1
		c0-0.2,0.1-0.4,0.1-0.6c0.1-0.4,0.2-0.7,0.3-1.1c0-0.1,0.1-0.2,0.1-0.3c0.3-0.9,0.7-1.8,1.1-2.5h-8c-0.3,0.1-1.3,0.9-2.4,3.7
		c-1,2.6-1.6,5.7-1.6,8.5c0,7.6,1.2,14.9,3.4,21.1c2.1,5.8,5.1,10.3,8.4,12.6c1.8,1.3,3.6,1.9,5.4,1.9h0.1l0,0l0,0h0.1
		c0,0,0.1,0,0.2,0h0.1h0.1c0.2,0,0.3,0,0.5,0h3.1c-2.1-1.8-4-4.2-5.9-7.3l0,0l0,0C64.3,83.6,64.3,83.5,64.3,83.5z"/>
</g>
</svg>
