<?xml version="1.0" encoding="utf-8"?>
<!-- Generator: Adobe Illustrator 24.1.0, SVG Export Plug-In . SVG Version: 6.00 Build 0)  -->
<svg version="1.1" id="Layer_1" xmlns="http://www.w3.org/2000/svg" xmlns:xlink="http://www.w3.org/1999/xlink" x="0px" y="0px"
	 viewBox="0 0 161.6 25.2" style="enable-background:new 0 0 161.6 25.2;" xml:space="preserve">
<g>
	<g>
		<path d="M34.8,0h2.6c0.3,0,0.5,0.3,0.4,0.6l-9.9,24.5h-0.8L18.9,4.8l-8.3,20.4H9.9L0,0.7C-0.1,0.4,0.1,0,0.5,0h2.6
			c0.2,0,0.4,0.1,0.4,0.3l6.8,17l6.3-15.7C17,0.7,17.9,0,19,0l0,0c1,0,2,0.6,2.3,1.6l6.4,15.7l6.7-17C34.5,0.2,34.6,0,34.8,0z"/>
		<path d="M61.8,0h2.7c0.3,0,0.5,0.2,0.5,0.5v24.1c0,0.3-0.2,0.5-0.5,0.5h-2.7c-0.3,0-0.5-0.2-0.5-0.5v-9.4c0-0.6-0.5-1.1-1.1-1.1
			H48.3c-0.6,0-1.1,0.5-1.1,1.1v9.4c0,0.3-0.2,0.5-0.5,0.5h-2.7c-0.3,0-0.5-0.2-0.5-0.5V0.5c0-0.3,0.2-0.5,0.5-0.5h2.7
			c0.3,0,0.5,0.2,0.5,0.5v9.3c0,0.6,0.5,1.1,1.1,1.1h11.9c0.6,0,1.1-0.5,1.1-1.1V0.5C61.3,0.2,61.5,0,61.8,0z"/>
		<path d="M73.7,0h2.7c0.3,0,0.5,0.2,0.5,0.5v24.1c0,0.3-0.2,0.5-0.5,0.5h-2.7c-0.3,0-0.5-0.2-0.5-0.5V0.5C73.2,0.2,73.4,0,73.7,0z"
			/>
		<path d="M83,0H102c0.9,0,1.4,1,0.9,1.8L88.2,21.9h15.6c0.3,0,0.5,0.2,0.5,0.5v2.3c0,0.3-0.2,0.5-0.5,0.5h-20c-0.9,0-1.4-1-0.9-1.8
			L97.6,3.2H83c-0.3,0-0.5-0.2-0.5-0.5V0.5C82.6,0.2,82.8,0,83,0z"/>
		<path d="M110.4,0h2.7c0.3,0,0.5,0.2,0.5,0.5v21.4h10.8c0.3,0,0.5,0.2,0.5,0.5v2.3c0,0.3-0.2,0.5-0.5,0.5H111
			c-0.6,0-1.1-0.5-1.1-1.1V0.5C109.9,0.2,110.2,0,110.4,0z"/>
		<path d="M131.1,0h2.7c0.3,0,0.5,0.2,0.5,0.5v24.1c0,0.3-0.2,0.5-0.5,0.5h-2.7c-0.3,0-0.5-0.2-0.5-0.5V0.5
			C130.6,0.2,130.8,0,131.1,0z"/>
		<path d="M140.4,0h18.9c0.9,0,1.4,1,0.9,1.8l-14.7,20.1h15.6c0.3,0,0.5,0.2,0.5,0.5v2.3c0,0.3-0.2,0.5-0.5,0.5h-20
			c-0.9,0-1.4-1-0.9-1.8L155,3.2h-14.6c-0.3,0-0.5-0.2-0.5-0.5V0.5C139.9,0.2,140.1,0,140.4,0z"/>
	</g>
</g>
</svg>
