<?xml version="1.0" encoding="utf-8"?>
<!-- Generator: Adobe Illustrator 24.1.0, SVG Export Plug-In . SVG Version: 6.00 Build 0)  -->
<svg version="1.1" id="Layer_1" xmlns="http://www.w3.org/2000/svg" xmlns:xlink="http://www.w3.org/1999/xlink" x="0px" y="0px"
	 viewBox="0 0 120 120" style="enable-background:new 0 0 120 120;" xml:space="preserve">
<style type="text/css">
	.st0{fill:#E5A800;}
	.st1{fill:#FFFFFF;}
</style>
<g>
	<g>
		<g>
			<circle class="st0" cx="60" cy="60" r="60"/>
		</g>
	</g>
	<g>
		<g>
			<path class="st1" d="M71.4,84.8H58.3c-1,0-1.8-0.8-1.8-1.8s0.8-1.8,1.8-1.8h11.3V55.6c0-1,0.8-1.8,1.8-1.8h4.7
				c1,0,1.8,0.8,1.8,1.8c0,1-0.8,1.8-1.8,1.8h-2.9v25.6C73.2,84,72.4,84.8,71.4,84.8z"/>
		</g>
		<g>
			<path class="st1" d="M58.3,96.5c-0.2,0-0.5-0.1-0.7-0.1L27.8,83.7c-0.7-0.3-1.1-0.9-1.1-1.7V25.3c0-1,0.8-1.8,1.8-1.8h42.9
				c1,0,1.8,0.8,1.8,1.8v21.6c0,1-0.8,1.8-1.8,1.8s-1.8-0.8-1.8-1.8V27.1H30.3v53.8L56.5,92V40.8l-18.6-7.7c-0.9-0.4-1.4-1.4-1-2.4
				s1.4-1.4,2.3-1L59,38c0.7,0.3,1.1,0.9,1.1,1.7v55.1c0,0.6-0.3,1.2-0.8,1.5C59,96.4,58.6,96.5,58.3,96.5z"/>
		</g>
		<g>
			<path class="st1" d="M91.5,48.7H67.8c-1,0-1.8-0.8-1.8-1.8c0-1,0.8-1.8,1.8-1.8h23.6c1,0,1.8,0.8,1.8,1.8
				C93.3,47.9,92.5,48.7,91.5,48.7z"/>
		</g>
		<g>
			<path class="st1" d="M91.5,48.7c-0.5,0-0.9-0.2-1.3-0.5L79.5,37.4c-0.7-0.7-0.7-1.8,0-2.5c0.7-0.7,1.8-0.7,2.6,0l10.7,10.7
				c0.7,0.7,0.7,1.8,0,2.5C92.4,48.5,91.9,48.7,91.5,48.7z"/>
		</g>
	</g>
</g>
</svg>
