<svg width="170" height="64" viewBox="0 0 170 64" fill="none" xmlns="http://www.w3.org/2000/svg">
<path fill-rule="evenodd" clip-rule="evenodd" d="M18.7511 63.2763L16.5011 53.129C15.9846 51.1543 16.136 48.8429 16.9321 46.9637L18.7511 42.6692L20.57 46.9637C21.3661 48.8429 21.5175 51.1543 21.001 53.129L18.7511 63.2763Z" fill="white"/>
<path fill-rule="evenodd" clip-rule="evenodd" d="M9.46783 33.9597C9.46783 34.6739 8.88723 35.2527 8.17193 35.2527C7.45663 35.2527 6.87695 34.6739 6.87695 33.9597C6.87695 33.2455 7.45663 32.6658 8.17193 32.6658C8.88723 32.6658 9.46783 33.2455 9.46783 33.9597Z" fill="white"/>
<path fill-rule="evenodd" clip-rule="evenodd" d="M20.9513 38.3736C20.9513 39.5868 19.9656 40.5709 18.7506 40.5709C17.5355 40.5709 16.5508 39.5868 16.5508 38.3736C16.5508 37.1595 17.5355 36.1763 18.7506 36.1763C19.9656 36.1763 20.9513 37.1595 20.9513 38.3736Z" fill="white"/>
<path fill-rule="evenodd" clip-rule="evenodd" d="M7.6669 49.3047L6.34313 43.3323C6.03843 42.1701 6.12761 40.8094 6.59673 39.7028L7.6669 37.1753L8.73799 39.7028C9.20619 40.8094 9.29537 42.1701 8.9916 43.3323L7.6669 49.3047Z" fill="white"/>
<mask id="mask0" mask-type="alpha" maskUnits="userSpaceOnUse" x="0" y="0" width="38" height="34">
<path fill-rule="evenodd" clip-rule="evenodd" d="M0 0.92749H37.5021V33.1696H0V0.92749Z" fill="white"/>
</mask>
<g mask="url(#mask0)">
<path fill-rule="evenodd" clip-rule="evenodd" d="M7.2877 31.6939C4.83989 28.531 3.34891 24.3533 3.34891 19.7787C3.34891 9.93108 10.2585 1.91995 18.7511 1.91995C27.2437 1.91995 34.1533 9.93108 34.1533 19.7787C34.1533 24.3237 32.6809 28.4772 30.2609 31.6327C30.9762 31.8404 31.5596 32.3487 31.8699 33.0128C35.3433 29.6125 37.5022 24.8783 37.5022 19.6498C37.5022 9.32633 29.0904 0.92749 18.7511 0.92749C8.41175 0.92749 0 9.32633 0 19.6498C0 24.959 2.22486 29.759 5.79301 33.1696C6.0559 32.4878 6.60213 31.9489 7.2877 31.6939Z" fill="white"/>
</g>
<path fill-rule="evenodd" clip-rule="evenodd" d="M27.0778 34.7966C25.4493 36.0145 23.61 36.8864 21.6396 37.3214C21.7316 37.5746 21.7929 37.8417 21.8152 38.1209C23.9723 37.7647 26.0067 37.0403 27.8507 36.0145C27.4865 35.6945 27.2143 35.2752 27.0778 34.7966Z" fill="white"/>
<path fill-rule="evenodd" clip-rule="evenodd" d="M15.8626 37.3217C13.9657 36.9024 12.1914 36.0797 10.6084 34.9314C10.4486 35.3915 10.1625 35.7931 9.78906 36.0917C11.5959 37.0777 13.5829 37.7743 15.6861 38.1212C15.7093 37.842 15.7697 37.5749 15.8626 37.3217Z" fill="white"/>
<path fill-rule="evenodd" clip-rule="evenodd" d="M30.8267 33.9597C30.8267 34.6739 30.247 35.2527 29.5317 35.2527C28.8164 35.2527 28.2358 34.6739 28.2358 33.9597C28.2358 33.2455 28.8164 32.6658 29.5317 32.6658C30.247 32.6658 30.8267 33.2455 30.8267 33.9597Z" fill="white"/>
<path fill-rule="evenodd" clip-rule="evenodd" d="M30.1935 49.3047L28.8688 43.3323C28.5651 42.1701 28.6542 40.8094 29.1224 39.7028L30.1935 37.1753L31.2637 39.7028C31.7328 40.8094 31.822 42.1701 31.5173 43.3323L30.1935 49.3047Z" fill="white"/>
<path fill-rule="evenodd" clip-rule="evenodd" d="M26.002 19.167C26.0419 18.8572 26.0623 18.5474 26.0623 18.2366C26.0623 17.1718 25.7855 16.3361 25.2319 15.7286C25.1241 15.608 24.969 15.4902 24.7664 15.3752C24.5639 15.2611 24.3884 15.1767 24.2397 15.1229L24.2602 14.8799C24.8677 14.8799 25.361 14.8864 25.7381 14.8994L27.3991 14.9198C28.3717 14.9198 29.1409 14.9068 29.7085 14.8799L29.729 15.1229C29.3499 15.2843 29.0257 15.4939 28.7563 15.749C28.2974 16.1534 27.8515 16.6626 27.4196 17.2757C26.9876 17.8897 26.6021 18.5334 26.2649 19.2068L26.002 19.167ZM20.8369 25.618L20.614 25.0522C19.8039 23.0162 19.149 21.3847 18.6492 20.1576C17.9739 18.4991 17.5558 17.502 17.3942 17.1653C16.8805 16.0996 16.2664 15.4253 15.5511 15.1424V14.8799C15.8066 14.8799 16.05 14.8864 16.2804 14.8994L18.4467 14.9198C19.0004 14.9198 19.4602 14.9133 19.8244 14.8994L21.6674 14.8799L21.6879 15.1229C21.215 15.2574 20.81 15.4531 20.4728 15.7082C20.1346 15.9651 19.9656 16.248 19.9656 16.5578C19.9656 17.0438 20.0603 17.5688 20.2498 18.1355C20.5601 19.0928 20.8778 19.9897 21.202 20.8254C21.5262 21.6481 22.2007 23.2314 23.2272 25.5781C23.308 25.7534 23.3823 25.9148 23.4492 26.0632C23.517 26.2116 23.5783 26.3461 23.6322 26.4676C23.1593 27.6678 22.8017 28.638 22.5583 29.3791L22.275 29.3995C21.8969 28.2939 21.4175 27.0334 20.8369 25.618ZM13.1609 25.0522C11.6346 21.1695 10.5208 18.5872 9.81945 17.3063C9.1571 16.0801 8.47524 15.3585 7.77295 15.1424V14.8799C8.03027 14.8799 8.27273 14.8864 8.50218 14.8994L10.6695 14.9198C11.2231 14.9198 11.682 14.9133 12.0471 14.8994L13.8902 14.8799L13.9097 15.1229C13.5325 15.2305 13.2018 15.4086 12.9175 15.6581C12.6342 15.9076 12.4726 16.1942 12.4317 16.5179C12.4447 16.9631 12.5599 17.502 12.7763 18.1355C12.9919 18.8228 13.3086 19.6929 13.7276 20.7447C14.3082 22.2547 15.1117 24.1617 16.1382 26.4676C15.6255 27.8153 15.2743 28.7864 15.0848 29.3791L14.8015 29.3995C14.4234 28.3217 13.8762 26.872 13.1609 25.0522Z" fill="white"/>
<path fill-rule="evenodd" clip-rule="evenodd" d="M63.4158 25.8686L59.9805 14.8328H57.6535L54.1996 25.838L50.9696 14.8912H47.7173L52.4884 29.3478H54.6668L58.1579 18.0068L61.7047 29.3478H63.7948L68.566 14.8912H66.9626L63.4158 25.8686Z" fill="white"/>
<path fill-rule="evenodd" clip-rule="evenodd" d="M78.5021 14.5693C76.5764 14.5693 75.0715 15.4041 74.2252 16.9002V6.94214H71.2107V29.3486H74.2252V21.0435C74.3125 17.299 76.189 15.9643 77.915 15.9643C79.7014 15.9643 80.6062 17.376 80.6062 20.1614V29.3486H83.6207V19.8989C83.6207 16.5616 81.708 14.5693 78.5021 14.5693Z" fill="white"/>
<mask id="mask1" mask-type="alpha" maskUnits="userSpaceOnUse" x="0" y="0" width="170" height="64">
<path fill-rule="evenodd" clip-rule="evenodd" d="M0 63.2762H169.64V0.927246H0V63.2762Z" fill="white"/>
</mask>
<g mask="url(#mask1)">
<path fill-rule="evenodd" clip-rule="evenodd" d="M87.3289 29.3479H90.3443V14.8904H87.3289V29.3479Z" fill="white"/>
<path fill-rule="evenodd" clip-rule="evenodd" d="M88.9238 8.66626C87.8629 8.66626 87.0938 9.42035 87.0938 10.4601C87.0938 11.4646 87.8629 12.1946 88.9238 12.1946C89.968 12.1946 90.7251 11.4646 90.7251 10.4601C90.7251 9.40365 89.9847 8.66626 88.9238 8.66626Z" fill="white"/>
<path fill-rule="evenodd" clip-rule="evenodd" d="M104.759 15.6744V14.8906H93.6693V16.256H100.986L93.1416 28.5653V29.3481H105.111V27.9828H96.8584L104.759 15.6744Z" fill="white"/>
<path fill-rule="evenodd" clip-rule="evenodd" d="M108.174 29.3479H111.188V6.94141H108.174V29.3479Z" fill="white"/>
<path fill-rule="evenodd" clip-rule="evenodd" d="M115.014 29.3479H118.029V14.8904H115.014V29.3479Z" fill="white"/>
<path fill-rule="evenodd" clip-rule="evenodd" d="M116.61 8.66626C115.549 8.66626 114.78 9.42035 114.78 10.4601C114.78 11.4646 115.549 12.1946 116.61 12.1946C117.653 12.1946 118.41 11.4646 118.41 10.4601C118.41 9.40365 117.67 8.66626 116.61 8.66626Z" fill="white"/>
<path fill-rule="evenodd" clip-rule="evenodd" d="M132.445 15.6744V14.8906H121.355V16.256H128.671L120.827 28.5653V29.3481H132.797V27.9828H124.544L132.445 15.6744Z" fill="white"/>
<path fill-rule="evenodd" clip-rule="evenodd" d="M137.278 25.9375C136.166 25.9375 135.419 26.6934 135.419 27.8185C135.419 28.9427 136.132 29.6412 137.278 29.6412C138.426 29.6412 139.168 28.9251 139.168 27.8185C139.168 26.7101 138.391 25.9375 137.278 25.9375Z" fill="white"/>
<path fill-rule="evenodd" clip-rule="evenodd" d="M147.738 27.7386C147.414 28.0373 146.718 28.5391 145.699 28.5391C144.176 28.5391 143.336 27.3852 143.336 25.2899C143.336 23.1853 144.209 21.9777 145.732 21.9777C146.375 21.9777 146.915 22.2012 147.432 22.6807L147.616 22.8514L148.172 22.2244L148.017 22.0612C147.343 21.3534 146.504 21.0242 145.377 21.0242C142.962 21.0242 141.462 22.665 141.462 25.3066C141.462 27.938 142.914 29.5083 145.345 29.5083C146.891 29.5083 147.751 28.8999 148.328 28.3703L148.51 28.2024L147.916 27.5744L147.738 27.7386Z" fill="white"/>
<path fill-rule="evenodd" clip-rule="evenodd" d="M153.008 21.9614C154.694 21.9614 155.049 23.72 155.049 25.1939C155.049 27.3402 154.305 28.571 153.008 28.571C151.711 28.571 150.967 27.3402 150.967 25.1939C150.967 23.72 151.321 21.9614 153.008 21.9614ZM153.008 21.0237C150.546 21.0237 149.078 22.5829 149.078 25.1939C149.078 27.855 150.583 29.5088 153.008 29.5088C155.433 29.5088 156.939 27.855 156.939 25.1939C156.939 22.5829 155.469 21.0237 153.008 21.0237Z" fill="white"/>
<path fill-rule="evenodd" clip-rule="evenodd" d="M166.883 21.0239C165.882 21.0239 165.078 21.458 164.641 22.2102C164.118 21.3458 163.17 21.0239 162.376 21.0239C161.578 21.0239 160.886 21.3365 160.432 21.8671V21.2002H158.558V29.3486H160.432V24.4614C160.462 22.6518 161.273 22.0099 161.958 22.0099C163.044 22.0099 163.162 23.3177 163.162 23.8807V29.3486H165.036V24.2694C165.06 22.8122 165.589 22.0099 166.53 22.0099C167.537 22.0099 167.749 23.0534 167.749 23.928V29.3486H169.64V23.9123C169.64 21.7827 168.216 21.0239 166.883 21.0239Z" fill="white"/>
<path fill-rule="evenodd" clip-rule="evenodd" d="M47.6912 36.366C47.6912 36.2519 47.7822 36.1499 47.9076 36.1499H48.3517C48.465 36.1499 48.5672 36.2519 48.5672 36.366V43.3429H51.8455C51.97 43.3429 52.0619 43.445 52.0619 43.5581V43.8883C52.0619 44.0015 51.97 44.1045 51.8455 44.1045H47.9076C47.7822 44.1045 47.6912 44.0015 47.6912 43.8883V36.366Z" fill="white"/>
<path fill-rule="evenodd" clip-rule="evenodd" d="M53.2322 39.1044C53.2322 38.9792 53.3344 38.854 53.483 38.854H53.8239C53.9605 38.854 54.0738 38.9792 54.0738 39.1044V41.9455C54.0738 42.9899 54.4157 43.4676 55.1784 43.4676C55.9633 43.4676 56.4297 42.9788 56.6693 42.7061V39.1044C56.6693 38.9792 56.7715 38.854 56.9081 38.854H57.2602C57.3856 38.854 57.4998 38.9792 57.4998 39.1044V43.8544C57.4998 43.9907 57.3856 44.1039 57.2602 44.1039H57.079C56.9304 44.1039 56.8737 44.013 56.8393 43.8766L56.7372 43.5473C56.5439 43.7514 56.0544 44.2291 55.1096 44.2291C53.5963 44.2291 53.2322 43.3201 53.2322 41.9334V39.1044Z" fill="white"/>
<path fill-rule="evenodd" clip-rule="evenodd" d="M59.1252 43.763L60.8782 41.433L59.1708 39.1949C59.0463 39.0252 59.1252 38.8545 59.3417 38.8545H59.8312C59.9223 38.8545 60.0012 38.8999 60.0356 38.9565L61.3557 40.7745H61.3789L62.7445 38.9565C62.79 38.8999 62.8587 38.8545 62.9488 38.8545H63.4384C63.6548 38.8545 63.7338 39.0252 63.6093 39.1949L61.9019 41.4108L63.6205 43.763C63.7459 43.9337 63.6548 44.1043 63.4495 44.1043H63.0176C62.9377 44.1043 62.8587 44.0468 62.8123 43.9903L61.3789 42.0128H61.3557L59.9334 44.0014C59.8879 44.058 59.808 44.1043 59.7281 44.1043H59.2962C59.0686 44.1043 58.9998 43.9216 59.1252 43.763Z" fill="white"/>
<path fill-rule="evenodd" clip-rule="evenodd" d="M65.2012 39.1044C65.2012 38.9792 65.3034 38.854 65.452 38.854H65.7929C65.9295 38.854 66.0428 38.9792 66.0428 39.1044V41.9455C66.0428 42.9899 66.3847 43.4676 67.1473 43.4676C67.9323 43.4676 68.3987 42.9788 68.6383 42.7061V39.1044C68.6383 38.9792 68.7405 38.854 68.8771 38.854H69.2301C69.3546 38.854 69.4688 38.9792 69.4688 39.1044V43.8544C69.4688 43.9907 69.3546 44.1039 69.2301 44.1039H69.048C68.8994 44.1039 68.8427 44.013 68.8083 43.8766L68.7061 43.5473C68.5129 43.7514 68.0234 44.2291 67.0786 44.2291C65.5653 44.2291 65.2012 43.3201 65.2012 41.9334V39.1044Z" fill="white"/>
<path fill-rule="evenodd" clip-rule="evenodd" d="M71.5271 39.1046C71.5271 38.9793 71.6404 38.8541 71.7779 38.8541H71.9591C72.0622 38.8541 72.1523 38.9116 72.1867 39.0359L72.2786 39.4116C72.2786 39.4116 72.8016 38.741 73.8941 38.741C74.2926 38.741 74.941 38.7975 74.8156 39.1611L74.6679 39.5702C74.6113 39.7409 74.4858 39.752 74.3604 39.6954C74.236 39.6388 74.0427 39.5479 73.7919 39.5479C72.7784 39.5479 72.3687 40.2176 72.3687 40.2176V43.8545C72.3687 43.9908 72.2433 44.104 72.1188 44.104H71.7779C71.6404 44.104 71.5271 43.9908 71.5271 43.8545V39.1046Z" fill="white"/>
<path fill-rule="evenodd" clip-rule="evenodd" d="M75.6453 39.1385C75.5775 38.9678 75.6453 38.8538 75.8497 38.8538H76.3281C76.4303 38.8538 76.5213 38.9113 76.5557 39.0022L78.0467 43.1724H78.069L79.8451 39.0022C79.8786 38.9113 79.9696 38.8538 80.0727 38.8538H80.4935C80.6979 38.8538 80.7778 38.979 80.6979 39.1496L77.4094 46.6497C77.375 46.7285 77.2728 46.8083 77.1818 46.8083H76.7721C76.5668 46.8083 76.4758 46.672 76.5557 46.4902L77.5682 44.0925L75.6453 39.1385Z" fill="white"/>
<path fill-rule="evenodd" clip-rule="evenodd" d="M86.2838 43.4677C86.9322 43.4677 87.5017 43.1041 87.7293 42.7628V41.6952C87.5583 41.6043 87.1375 41.4902 86.6136 41.4902C85.8853 41.4902 85.339 41.8426 85.339 42.5133C85.339 43.0466 85.7032 43.4677 86.2838 43.4677ZM86.6136 40.7751C87.1719 40.7751 87.7404 40.9448 87.7404 40.9448C87.7516 39.9792 87.6261 39.5025 86.8755 39.5025C86.1584 39.5025 85.5555 39.7288 85.3158 39.8086C85.1802 39.8661 85.1114 39.7974 85.0659 39.6722L84.9526 39.3652C84.9071 39.2066 84.987 39.1389 85.1114 39.0814C85.3734 38.9673 86.0562 38.741 86.9211 38.741C88.2634 38.741 88.5486 39.3995 88.5486 40.9448V43.8545C88.5486 43.9899 88.4343 44.104 88.2978 44.104H88.0823C87.9457 44.104 87.9002 44.0242 87.8658 43.9111L87.7636 43.5586C87.4896 43.8313 86.9434 44.2292 86.1361 44.2292C85.2146 44.2292 84.5085 43.5697 84.5085 42.5133C84.5085 41.5134 85.2591 40.7751 86.6136 40.7751Z" fill="white"/>
<path fill-rule="evenodd" clip-rule="evenodd" d="M90.2083 39.5814C90.0494 39.5814 89.9463 39.4673 89.9463 39.331V39.1047C89.9463 38.9563 90.0494 38.8542 90.2083 38.8542H90.9031V37.3999C90.9031 37.2635 91.0276 37.1615 91.153 37.1494L91.506 37.1272C91.6426 37.116 91.7448 37.2412 91.7448 37.3776V38.8542H93.2924C93.4401 38.8542 93.5544 38.9563 93.5544 39.1047V39.331C93.5544 39.4673 93.4401 39.5814 93.2924 39.5814H91.7448V42.7174C91.7448 43.2628 91.9157 43.4678 92.2111 43.4678C92.7007 43.4678 93.0314 43.2628 93.2469 43.1265C93.4522 43.0022 93.52 43.1042 93.5767 43.2294L93.6798 43.4678C93.7476 43.6385 93.7253 43.7173 93.5887 43.8082C93.3612 43.9677 92.8149 44.2293 92.1089 44.2293C91.1075 44.2293 90.9031 43.593 90.9031 42.774V39.5814H90.2083Z" fill="white"/>
<path fill-rule="evenodd" clip-rule="evenodd" d="M97.615 39.1385C97.5472 38.9678 97.615 38.8538 97.8203 38.8538H98.2978C98.4 38.8538 98.491 38.9113 98.5254 39.0022L100.016 43.1724H100.039L101.815 39.0022C101.849 38.9113 101.939 38.8538 102.042 38.8538H102.463C102.668 38.8538 102.748 38.979 102.668 39.1496L99.3791 46.6497C99.3447 46.7285 99.2425 46.8083 99.1515 46.8083H98.7418C98.5375 46.8083 98.4464 46.672 98.5254 46.4902L99.538 44.0925L97.615 39.1385Z" fill="white"/>
<path fill-rule="evenodd" clip-rule="evenodd" d="M106.32 43.4677C107.356 43.4677 108.118 42.5587 108.118 41.4679C108.118 40.3994 107.356 39.5025 106.32 39.5025C105.284 39.5025 104.51 40.3994 104.51 41.4679C104.51 42.5587 105.284 43.4677 106.32 43.4677ZM106.32 38.741C107.777 38.741 108.96 39.9904 108.96 41.4679C108.96 42.9677 107.777 44.2292 106.32 44.2292C104.863 44.2292 103.68 42.9677 103.68 41.4679C103.68 39.9904 104.863 38.741 106.32 38.741Z" fill="white"/>
<path fill-rule="evenodd" clip-rule="evenodd" d="M110.62 39.1044C110.62 38.9792 110.722 38.854 110.871 38.854H111.212C111.348 38.854 111.462 38.9792 111.462 39.1044V41.9455C111.462 42.9899 111.804 43.4676 112.566 43.4676C113.351 43.4676 113.818 42.9788 114.057 42.7061V39.1044C114.057 38.9792 114.159 38.854 114.296 38.854H114.649C114.774 38.854 114.888 38.9792 114.888 39.1044V43.8544C114.888 43.9907 114.774 44.1039 114.649 44.1039H114.467C114.318 44.1039 114.262 44.013 114.227 43.8766L114.125 43.5473C113.932 43.7514 113.442 44.2291 112.498 44.2291C110.984 44.2291 110.62 43.3201 110.62 41.9334V39.1044Z" fill="white"/>
<path fill-rule="evenodd" clip-rule="evenodd" d="M116.946 39.1046C116.946 38.9793 117.06 38.8541 117.197 38.8541H117.378C117.481 38.8541 117.571 38.9116 117.606 39.0359L117.698 39.4116C117.698 39.4116 118.221 38.741 119.313 38.741C119.712 38.741 120.36 38.7975 120.235 39.1611L120.087 39.5702C120.03 39.7409 119.905 39.752 119.779 39.6954C119.655 39.6388 119.462 39.5479 119.211 39.5479C118.197 39.5479 117.789 40.2176 117.789 40.2176V43.8545C117.789 43.9908 117.662 44.104 117.538 44.104H117.197C117.06 44.104 116.946 43.9908 116.946 43.8545V39.1046Z" fill="white"/>
<path fill-rule="evenodd" clip-rule="evenodd" d="M126.514 43.4677C127.459 43.4677 128.005 42.6264 128.005 42.6264V39.7974C128.005 39.7974 127.39 39.5025 126.662 39.5025C125.536 39.5025 124.91 40.4337 124.91 41.479C124.91 42.5012 125.559 43.4677 126.514 43.4677ZM126.549 38.741C127.414 38.741 128.005 39.0702 128.005 39.0702V36.3998C128.005 36.2746 128.12 36.1494 128.256 36.1494H128.575C128.71 36.1494 128.836 36.2746 128.836 36.3998V43.8545C128.836 43.9899 128.71 44.104 128.575 44.104H128.37C128.256 44.104 128.187 44.0131 128.142 43.8878L128.073 43.5465C128.073 43.5465 127.403 44.2292 126.412 44.2292C125.081 44.2292 124.056 42.9677 124.056 41.4679C124.056 39.9338 124.967 38.741 126.549 38.741Z" fill="white"/>
<path fill-rule="evenodd" clip-rule="evenodd" d="M133.193 43.4677C134.229 43.4677 134.992 42.5587 134.992 41.4679C134.992 40.3994 134.229 39.5025 133.193 39.5025C132.158 39.5025 131.384 40.3994 131.384 41.4679C131.384 42.5587 132.158 43.4677 133.193 43.4677ZM133.193 38.741C134.65 38.741 135.833 39.9904 135.833 41.4679C135.833 42.9677 134.65 44.2292 133.193 44.2292C131.737 44.2292 130.553 42.9677 130.553 41.4679C130.553 39.9904 131.737 38.741 133.193 38.741Z" fill="white"/>
<path fill-rule="evenodd" clip-rule="evenodd" d="M139.849 43.4677C140.885 43.4677 141.647 42.5587 141.647 41.4679C141.647 40.3994 140.885 39.5025 139.849 39.5025C138.813 39.5025 138.039 40.3994 138.039 41.4679C138.039 42.5587 138.813 43.4677 139.849 43.4677ZM139.849 38.741C141.305 38.741 142.489 39.9904 142.489 41.4679C142.489 42.9677 141.305 44.2292 139.849 44.2292C138.392 44.2292 137.209 42.9677 137.209 41.4679C137.209 39.9904 138.392 38.741 139.849 38.741Z" fill="white"/>
<path fill-rule="evenodd" clip-rule="evenodd" d="M144.206 39.1046C144.206 38.9793 144.32 38.8541 144.457 38.8541H144.639C144.741 38.8541 144.832 38.9116 144.867 39.0359L144.958 39.4116C144.958 39.4116 145.481 38.741 146.573 38.741C146.972 38.741 147.62 38.7975 147.496 39.1611L147.347 39.5702C147.29 39.7409 147.165 39.752 147.04 39.6954C146.915 39.6388 146.722 39.5479 146.471 39.5479C145.458 39.5479 145.049 40.2176 145.049 40.2176V43.8545C145.049 43.9908 144.923 44.104 144.798 44.104H144.457C144.32 44.104 144.206 43.9908 144.206 43.8545V39.1046Z" fill="white"/>
<path fill-rule="evenodd" clip-rule="evenodd" d="M148.609 43.5929C148.551 43.5354 148.529 43.4566 148.575 43.3657L148.734 43.0698C148.802 42.9455 148.893 42.8991 149.041 43.0021C149.223 43.1384 149.678 43.4677 150.35 43.4677C150.885 43.4677 151.249 43.2182 151.249 42.8091C151.249 42.3083 150.839 42.1042 150.077 41.7295C149.383 41.3882 148.587 41.0134 148.587 40.1156C148.587 39.5702 148.996 38.741 150.213 38.741C150.896 38.741 151.466 38.9682 151.715 39.15C151.83 39.2409 151.852 39.355 151.772 39.5025L151.659 39.7177C151.579 39.8661 151.409 39.8772 151.295 39.8086C151.067 39.6722 150.703 39.5025 150.213 39.5025C149.634 39.5025 149.439 39.8317 149.439 40.0813C149.439 40.5478 149.804 40.7175 150.441 41.0134C151.351 41.4336 152.136 41.7749 152.136 42.7294C152.136 43.5586 151.42 44.2292 150.35 44.2292C149.474 44.2292 148.882 43.8424 148.609 43.5929Z" fill="white"/>
<path fill-rule="evenodd" clip-rule="evenodd" d="M153.433 39.5814C153.274 39.5814 153.171 39.4673 153.171 39.331V39.1047C153.171 38.9563 153.274 38.8542 153.433 38.8542H154.127V37.3999C154.127 37.2635 154.252 37.1615 154.377 37.1494L154.73 37.1272C154.867 37.116 154.969 37.2412 154.969 37.3776V38.8542H156.517C156.664 38.8542 156.779 38.9563 156.779 39.1047V39.331C156.779 39.4673 156.664 39.5814 156.517 39.5814H154.969V42.7174C154.969 43.2628 155.14 43.4678 155.435 43.4678C155.925 43.4678 156.256 43.2628 156.471 43.1265C156.677 43.0022 156.744 43.1042 156.801 43.2294L156.904 43.4678C156.972 43.6385 156.95 43.7173 156.813 43.8082C156.586 43.9677 156.039 44.2293 155.333 44.2293C154.332 44.2293 154.127 43.593 154.127 42.774V39.5814H153.433Z" fill="white"/>
<path fill-rule="evenodd" clip-rule="evenodd" d="M162.138 41.0018C162.115 40.2292 161.501 39.502 160.602 39.502C159.714 39.502 159.008 40.1837 158.906 41.0018H162.138ZM160.602 38.7405C161.978 38.7405 162.98 39.7524 162.98 41.127C162.98 41.2179 162.969 41.3543 162.957 41.4452C162.946 41.5815 162.832 41.6724 162.719 41.6724H158.894C158.917 42.548 159.657 43.4681 160.613 43.4681C161.307 43.4681 161.74 43.2288 162.036 43.0359C162.217 42.9107 162.297 42.8652 162.433 43.0693L162.57 43.2631C162.673 43.4218 162.719 43.4793 162.525 43.6267C162.206 43.8772 161.512 44.2287 160.602 44.2287C159.008 44.2287 158.052 42.9793 158.052 41.4795C158.052 40.0019 159.008 38.7405 160.602 38.7405Z" fill="white"/>
<path fill-rule="evenodd" clip-rule="evenodd" d="M166.802 43.4677C167.814 43.4677 168.555 42.6153 168.555 41.4679C168.555 40.4449 167.918 39.5025 166.859 39.5025C166.017 39.5025 165.471 40.1378 165.471 40.1378V43.0132C165.471 43.0132 166.074 43.4677 166.802 43.4677ZM165.471 46.5582C165.471 46.6946 165.345 46.8087 165.22 46.8087H164.89C164.753 46.8087 164.64 46.6946 164.64 46.5582V39.1046C164.64 38.9793 164.753 38.8541 164.89 38.8541H165.083C165.209 38.8541 165.243 38.8884 165.3 39.0248L165.38 39.2743C165.38 39.2743 166.017 38.741 166.962 38.741C168.395 38.741 169.408 39.9792 169.408 41.4791C169.408 43.0132 168.373 44.2292 166.927 44.2292C166.051 44.2292 165.471 43.797 165.471 43.797V46.5582Z" fill="white"/>
</g>
</svg>
