<?xml version="1.0" encoding="utf-8"?>
<!-- Generator: Adobe Illustrator 24.1.0, SVG Export Plug-In . SVG Version: 6.00 Build 0)  -->
<svg version="1.1" id="Layer_1" xmlns="http://www.w3.org/2000/svg" xmlns:xlink="http://www.w3.org/1999/xlink" x="0px" y="0px"
	 viewBox="0 0 120 120" style="enable-background:new 0 0 120 120;" xml:space="preserve">
<style type="text/css">
	.st0{fill:#E5A800;}
	.st1{fill:#FFFFFF;}
</style>
<g>
	<g>
		<circle class="st0" cx="60" cy="60" r="60"/>
	</g>
	<g>
		<g>
			<path class="st1" d="M60,66.6c-9.8,0-17.8-8-17.8-17.8S50.2,31,60,31c1,0,1.9,0.8,1.9,1.9c0,1-0.8,1.9-1.9,1.9
				c-7.8,0-14.1,6.3-14.1,14.1S52.2,62.9,60,62.9s14.1-6.3,14.1-14.1c0-1,0.8-1.9,1.9-1.9s1.9,0.8,1.9,1.9
				C77.8,58.7,69.8,66.6,60,66.6z"/>
		</g>
		<g>
			<path class="st1" d="M60,100.6c-3.3,0-6.8-1.7-10.4-5.1c-3.2-3-6.5-7.3-9.3-12.3c-6.1-10.8-9.7-23.6-9.7-34.3
				c0-16.2,13.2-29.5,29.5-29.5s29.5,13.2,29.5,29.5c0,10.7-3.6,23.5-9.7,34.3c-2.8,5-6.1,9.3-9.3,12.3
				C66.8,98.9,63.3,100.6,60,100.6z M60,23.1c-14.2,0-25.7,11.5-25.7,25.7c0,10.1,3.5,22.3,9.3,32.5c5.3,9.5,11.8,15.6,16.5,15.6
				s11.1-6.1,16.5-15.6c5.8-10.2,9.3-22.4,9.3-32.5C85.7,34.7,74.2,23.1,60,23.1z"/>
		</g>
	</g>
</g>
</svg>
