<?xml version="1.0" encoding="utf-8"?>
<!-- Generator: Adobe Illustrator 24.2.3, SVG Export Plug-In . SVG Version: 6.00 Build 0)  -->
<svg version="1.1" id="Layer_1" xmlns="http://www.w3.org/2000/svg" xmlns:xlink="http://www.w3.org/1999/xlink" x="0px" y="0px"
	 viewBox="0 0 120 120" style="enable-background:new 0 0 120 120;" xml:space="preserve">
<style type="text/css">
	.st0{fill:#231F20;}
	.st1{fill:#FFFFFF;}
</style>
<g>
	<g>
		<circle class="st0" cx="60" cy="60" r="60"/>
	</g>
	<g>
		<path class="st1" d="M85.92,94.16H34.08c-0.88,0-1.63-0.61-1.82-1.47l-9.05-41.83c-0.12-0.55,0.02-1.12,0.37-1.56
			c0.35-0.44,0.88-0.69,1.45-0.69h11.67c1.03,0,1.86,0.83,1.86,1.86s-0.83,1.86-1.86,1.86h-9.37l8.24,38.11h48.83l8.24-38.11h-38.2
			c-1.03,0-1.86-0.83-1.86-1.86s0.83-1.86,1.86-1.86h40.5c0.56,0,1.1,0.26,1.45,0.69c0.35,0.44,0.49,1.01,0.37,1.56L87.74,92.7
			C87.55,93.55,86.79,94.16,85.92,94.16z"/>
	</g>
	<g>
		<path class="st1" d="M45.3,61.86c-1.03,0-1.86-0.83-1.86-1.86V35.77c0-9.13,7.43-16.56,16.56-16.56s16.56,7.43,16.56,16.56v14.7
			c0,1.03-0.83,1.86-1.86,1.86s-1.86-0.83-1.86-1.86v-14.7c0-7.08-5.76-12.84-12.84-12.84s-12.84,5.76-12.84,12.84V60
			C47.16,61.03,46.33,61.86,45.3,61.86z"/>
	</g>
</g>
</svg>
