<?xml version="1.0" encoding="utf-8"?>
<!-- Generator: Adobe Illustrator 24.1.0, SVG Export Plug-In . SVG Version: 6.00 Build 0)  -->
<svg version="1.1" id="Layer_1" xmlns="http://www.w3.org/2000/svg" xmlns:xlink="http://www.w3.org/1999/xlink" x="0px" y="0px"
	 viewBox="0 0 120 120" style="enable-background:new 0 0 120 120;" xml:space="preserve">
<style type="text/css">
	.st0{fill:#E5A800;}
	.st1{fill:#FFFFFF;}
	.st2{fill:none;stroke:#FFFFFF;stroke-width:3.6;stroke-miterlimit:10;}
</style>
<g>
	<g>
		<circle class="st0" cx="60" cy="60" r="60"/>
	</g>
	<g>
		<path class="st1" d="M35.3,100.1c-1,0-1.8-0.8-1.8-1.8V75.1c0-6.4,3.5-12.5,9-15.8l22.4-13.1c1.8-1.1,3.3-2.4,4.3-4
			c1.5-2.3,2.3-5,2.2-7.8c-0.3-6.6-5.7-12.1-12.2-12.5c-3.7-0.2-7.1,1-9.8,3.5c-2.7,2.5-4.1,5.9-4.1,9.5c0,3.6,1.4,6.9,4,9.4
			c0.8,0.8,1.8,1.5,3,2.1c0.9,0.5,1.2,1.6,0.7,2.4s-1.6,1.2-2.4,0.7C49,49,47.8,48,46.7,47c-3.3-3.2-5-7.4-5-11.9
			c0-4.6,1.9-9,5.3-12.2c3.4-3.2,7.8-4.8,12.5-4.5c4.1,0.3,7.9,2,10.8,5s4.6,6.8,4.8,10.9c0.2,3.6-0.8,7-2.8,10
			c-1.3,2-3.2,3.7-5.5,5.1L44.4,62.5c-4.5,2.6-7.3,7.5-7.3,12.6v23.1C37.1,99.3,36.3,100.1,35.3,100.1z"/>
	</g>
	<g>
		<path class="st2" d="M67.4,61"/>
	</g>
	<g>
		<path class="st1" d="M84.7,100.1c-1,0-1.8-0.8-1.8-1.8V75.1c0-5.3-2.8-10.1-7.4-12.7l-10-5.7c-0.9-0.5-1.2-1.6-0.7-2.5
			c0.5-0.9,1.6-1.2,2.5-0.7l10,5.7c5.7,3.2,9.2,9.3,9.2,15.8v23.1C86.5,99.3,85.7,100.1,84.7,100.1z"/>
	</g>
</g>
</svg>
