<?xml version="1.0" encoding="utf-8"?>
<!-- Generator: Adobe Illustrator 24.2.3, SVG Export Plug-In . SVG Version: 6.00 Build 0)  -->
<svg version="1.1" id="Layer_1" xmlns="http://www.w3.org/2000/svg" xmlns:xlink="http://www.w3.org/1999/xlink" x="0px" y="0px"
	 viewBox="0 0 120 120" style="enable-background:new 0 0 120 120;" xml:space="preserve">
<style type="text/css">
	.st0{fill:#231F20;}
	.st1{fill:#FFFFFF;}
</style>
<g>
	<g>
		<circle class="st0" cx="60" cy="60" r="60"/>
	</g>
	<g>
		<g>
			<path class="st1" d="M59.95,96.02c-1.67,0-3.34-0.53-4.74-1.58c-4.37-3.3-12.77-9.99-19.92-17.66
				c-8.76-9.4-13.21-17.62-13.21-24.42c0-11.73,9.54-21.26,21.26-21.26c4.2,0,8.27,1.23,11.76,3.54c0.78,0.52,1,1.58,0.48,2.36
				c-0.52,0.78-1.58,1-2.36,0.48c-2.93-1.95-6.34-2.97-9.87-2.97c-9.84,0-17.85,8.01-17.85,17.85c0,5.82,4.25,13.46,12.29,22.09
				c6.97,7.48,15.2,14.02,19.48,17.26c1.6,1.21,3.82,1.19,5.41-0.03c4.29-3.32,12.52-10.01,19.5-17.54
				c8.06-8.69,12.33-16.22,12.33-21.78c0-5.24-1.8-9.74-5.21-13.01c-3.25-3.12-7.74-4.84-12.65-4.84
				c-10.91,0-21.25,11.7-21.35,11.82c-0.02,0.02-0.03,0.04-0.05,0.06c-1.17,1.23-1.82,2.84-1.82,4.54c0,3.63,2.95,6.58,6.58,6.58
				s6.58-2.95,6.58-6.58c0-0.94,0.76-1.71,1.71-1.71c0.94,0,1.71,0.76,1.71,1.71c0,5.51-4.48,9.99-9.99,9.99s-9.99-4.48-9.99-9.99
				c0-2.57,0.97-5.01,2.74-6.87C53.5,43.2,64.35,31.1,76.65,31.1c5.79,0,11.13,2.06,15.01,5.79c4.03,3.88,6.25,9.37,6.25,15.47
				c0,6.52-4.45,14.63-13.23,24.1c-7.15,7.71-15.54,14.53-19.91,17.92C63.35,95.47,61.65,96.02,59.95,96.02z"/>
		</g>
		<g>
			<path class="st1" d="M68.28,52.63c-0.94,0-1.71-0.76-1.71-1.71c0-2.86-2.15-5.18-3.42-6.3c-0.71-0.62-0.78-1.7-0.15-2.41
				c0.62-0.71,1.7-0.78,2.41-0.15c1.71,1.51,4.58,4.66,4.58,8.86C69.99,51.87,69.22,52.63,68.28,52.63z"/>
		</g>
	</g>
</g>
</svg>
