<?xml version="1.0" encoding="utf-8"?>
<!-- Generator: Adobe Illustrator 24.1.0, SVG Export Plug-In . SVG Version: 6.00 Build 0)  -->
<svg version="1.1" id="Layer_1" xmlns="http://www.w3.org/2000/svg" xmlns:xlink="http://www.w3.org/1999/xlink" x="0px" y="0px"
	 viewBox="0 0 120 120" style="enable-background:new 0 0 120 120;" xml:space="preserve">
<style type="text/css">
	.st0{fill:#E5A800;}
	.st1{fill:#FFFFFF;}
</style>
<g>
	<g>
		<circle class="st0" cx="60" cy="60" r="60"/>
	</g>
	<g>
		<path class="st1" d="M45.3,61.9c-1,0-1.9-0.8-1.9-1.9V35.8c0-9.1,7.4-16.6,16.6-16.6s16.6,7.4,16.6,16.6v14.7c0,1-0.8,1.9-1.9,1.9
			s-1.9-0.8-1.9-1.9V35.8c0-7.1-5.8-12.8-12.8-12.8s-12.8,5.8-12.8,12.8V60C47.2,61,46.3,61.9,45.3,61.9z"/>
	</g>
	<g>
		<path class="st1" d="M86,101.5c-3.6,0-7-1.4-9.5-3.9c-5.2-5.2-5.2-13.8,0-19c5.2-5.2,13.8-5.2,19,0c0.7,0.7,0.7,1.9,0,2.6
			c-0.7,0.7-1.9,0.7-2.6,0c-3.8-3.8-9.9-3.8-13.7,0s-3.8,9.9,0,13.7c1.8,1.8,4.3,2.8,6.9,2.8c2.6,0,5-1,6.9-2.8
			c1.4-1.4,2.3-3.1,2.7-5c0.2-1,1.2-1.7,2.2-1.5s1.7,1.2,1.5,2.2c-0.5,2.6-1.8,5-3.7,6.9C93,100.1,89.6,101.5,86,101.5z"/>
	</g>
	<g>
		<path class="st1" d="M85.7,93.3c-0.5,0-0.9-0.2-1.3-0.5l-3.9-3.9c-0.7-0.7-0.7-1.9,0-2.6c0.7-0.7,1.9-0.7,2.6,0l2.6,2.6l11.7-11.7
			c0.7-0.7,1.9-0.7,2.6,0c0.7,0.7,0.7,1.9,0,2.6l-13,13C86.6,93.1,86.1,93.3,85.7,93.3z"/>
	</g>
	<g>
		<path class="st1" d="M75.2,94.2H34.1c-0.9,0-1.6-0.6-1.8-1.5l-9-41.8c-0.1-0.5,0-1.1,0.4-1.6c0.4-0.4,0.9-0.7,1.5-0.7h11.7
			c1,0,1.9,0.8,1.9,1.9s-0.8,1.9-1.9,1.9h-9.4l8.2,38.1h39.6c1,0,1.9,0.8,1.9,1.9S76.3,94.2,75.2,94.2z"/>
	</g>
	<g>
		<path class="st1" d="M89.2,78.9c-0.1,0-0.3,0-0.4,0c-1-0.2-1.6-1.2-1.4-2.2l5.3-24.3H54.5c-1,0-1.9-0.8-1.9-1.9s0.8-1.9,1.9-1.9
			H95c0.6,0,1.1,0.3,1.4,0.7c0.3,0.4,0.5,1,0.4,1.6l-5.7,26.5C90.9,78.3,90.1,78.9,89.2,78.9z"/>
	</g>
</g>
</svg>
