<?xml version="1.0" encoding="utf-8"?>
<!-- Generator: Adobe Illustrator 24.1.0, SVG Export Plug-In . SVG Version: 6.00 Build 0)  -->
<svg version="1.1" id="Layer_1" xmlns="http://www.w3.org/2000/svg" xmlns:xlink="http://www.w3.org/1999/xlink" x="0px" y="0px"
	 viewBox="0 0 120 120" style="enable-background:new 0 0 120 120;" xml:space="preserve">
<style type="text/css">
	.st0{fill:#231F20;}
</style>
<g>
	<path class="st0" d="M72.8,58.3c-1.1,0-2,0.9-2,2c0,8.2-6.7,14.8-14.8,14.8c-8.2,0-14.8-6.7-14.8-14.8S47.8,45.4,56,45.4
		c1.1,0,2-0.9,2-2c0-1.1-0.9-2-2-2c-10.4,0-18.8,8.4-18.8,18.8C37.2,70.6,45.7,79,56,79c10.4,0,18.8-8.4,18.8-18.8
		C74.8,59.2,73.9,58.3,72.8,58.3z"/>
	<path class="st0" d="M109.6,23.7c-0.7-2.3-2.7-3.9-5-4.2L94.2,18l-4.6-9.4c-1.1-2.1-3.2-3.5-5.6-3.5c-2.4,0-4.5,1.3-5.6,3.5
		L73.7,18l-10.4,1.5c-2.4,0.3-4.3,2-5,4.2c-0.6,1.9-0.3,4,0.9,5.6c-1-0.1-2.1-0.2-3.2-0.2c-17.1,0-31.1,13.9-31.1,31.1
		c0,11.3,3.8,24.8,10.3,36.2c3,5.3,6.4,9.8,9.8,13c3.9,3.6,7.6,5.4,11,5.4c3.5,0,7.2-1.8,11-5.4c3.4-3.2,6.8-7.7,9.8-13
		c6.4-11.4,10.3-24.9,10.3-36.2c0-3.5-0.6-6.8-1.7-10l7.8,4.1c0.9,0.5,1.9,0.7,2.9,0.7c1.8,0,3.6-0.8,4.8-2.2
		c1.2-1.4,1.7-3.3,1.4-5.1l-1.8-10.3l7.5-7.3C109.7,28.5,110.3,26,109.6,23.7z M105.2,27.3l-8.2,8c-0.5,0.5-0.8,1.3-0.6,2l1.9,11.3
		c0.3,1.8-1.6,3.2-3.2,2.4L85,45.5c-0.5-0.3-1.1-0.3-1.7-0.2c-0.1,0-0.3,0.1-0.4,0.2l-3.1,1.6l-7,3.7c-1.6,0.9-3.5-0.5-3.2-2.4
		l1.8-10.6l0.1-0.6c0.1-0.7-0.1-1.5-0.6-2L66.4,31l-3.8-3.7c-1.3-1.3-0.6-3.5,1.2-3.8l11.3-1.6c0.7-0.1,1.4-0.6,1.7-1.2l5.1-10.3
		c0.8-1.7,3.2-1.7,4,0L91,20.6c0.3,0.7,0.9,1.1,1.7,1.2l11.3,1.6C105.8,23.7,106.5,26,105.2,27.3z M73.4,94.5
		C67.8,104.5,60.9,111,56,111s-11.8-6.4-17.4-16.4c-6.1-10.8-9.8-23.6-9.8-34.3c0-15,12.2-27.2,27.2-27.2c2.9,0,5.6,0.4,8.2,1.3
		l3.2,3.1l-1.8,10.3c-0.3,1.8,0.2,3.7,1.4,5.1c1.2,1.4,2.9,2.2,4.8,2.2c1,0,2-0.3,2.9-0.7l6.8-3.6c1.1,2.9,1.7,6.1,1.7,9.5
		C83.2,70.9,79.5,83.7,73.4,94.5z"/>
</g>
</svg>
