<svg width="164" height="112" viewBox="0 0 164 112" fill="none" xmlns="http://www.w3.org/2000/svg">
<path d="M9.42301 9.14247C9.78333 9.44325 10.0026 9.94957 10.081 10.6614C10.7732 15.7647 11.421 19.2734 12.0242 21.1874C12.292 20.6469 12.6937 19.8362 13.2292 18.7552C13.8297 17.6697 14.3252 16.8197 14.7158 16.2054C15.0992 15.5264 15.5693 14.7434 16.1262 13.8566C16.6831 12.9697 17.2218 12.2146 17.7422 11.5911C18.3418 11.0926 18.9842 10.9823 19.6692 11.2603C20.3542 11.5383 20.7648 11.9986 20.901 12.6412C21.0371 13.2837 20.8089 13.8867 20.2164 14.45C19.6533 14.6851 18.9309 15.2575 18.0493 16.1671C16.6979 17.5662 14.8871 19.8453 12.6168 23.0044C13.4362 25.099 14.3179 26.5696 15.2619 27.4164C16.4941 28.5038 18.3121 28.6696 20.7159 27.9141C23.0912 26.8996 25.6956 24.6953 28.5291 21.301C30.5459 18.8118 32.2383 16.0519 33.6065 13.0213C33.8814 12.5455 34.2173 12.3263 34.614 12.3637C35.0758 12.3965 35.3929 12.6025 35.5656 12.9817C35.796 13.2916 35.8062 13.6821 35.5963 14.1533C33.1231 17.8484 31.1962 20.5595 29.8155 22.2867C26.765 26.0875 24.0699 28.6569 21.7302 29.9949C21.5424 30.0733 21.2933 30.1886 20.9829 30.3408C20.6653 30.4283 20.4451 30.509 20.3223 30.5828C17.4995 31.6939 15.1263 31.2409 13.2028 29.2238C12.7562 28.7334 12.0293 27.4802 11.0222 25.464C7.94856 30.2446 5.30021 35.3214 3.07712 40.6945C2.80223 41.1703 2.43392 41.3917 1.97219 41.3589C1.45263 41.3954 1.07408 41.2263 0.836535 40.8517C0.598988 40.4771 0.581627 40.0218 0.784452 39.4859C4.62404 33.9342 7.85333 28.784 10.4723 24.0353C9.99811 22.6991 9.42734 20.7827 8.76003 18.2862C8.0856 15.725 7.63717 14.0283 7.41473 13.1962C6.88094 13.1032 6.42677 12.8416 6.05221 12.4114C5.7426 11.9766 5.68209 11.4266 5.87067 10.7612C5.92138 10.6272 5.99388 10.3939 6.08818 10.0612C6.24741 9.72396 6.35239 9.48835 6.40309 9.35437C7.20553 8.31986 8.21217 8.24923 9.42301 9.14247Z" fill="#0C0C0C"/>
<path d="M35.9533 15.4C34.5059 18.3057 33.7405 21.1636 33.6569 23.9736C33.5609 25.4802 33.9781 26.2987 34.9087 26.4291C35.8393 26.5594 36.9478 25.9273 38.2342 24.5328C39.8675 22.7227 41.1041 20.8751 41.9439 18.9902C40.8763 18.8043 39.7188 18.3964 38.4715 17.7666C37.2821 17.0675 36.4426 16.2786 35.9533 15.4ZM42.7805 16.7795C43.1426 15.9063 43.5122 14.8044 43.8894 13.4736C44.2595 12.0782 44.3301 10.6385 44.1015 9.15466C43.9306 7.60153 43.2104 6.70647 41.9409 6.46949C40.6135 6.30177 39.4765 6.67501 38.53 7.5892C37.5763 8.43868 37.1671 9.4782 37.3023 10.7078C37.3647 12.4641 37.8424 13.8327 38.7357 14.8134C39.564 15.7987 40.9123 16.4541 42.7805 16.7795ZM43.3727 4.3148C44.7864 4.6721 45.8095 5.64372 46.4421 7.22967C47.2962 10.2348 46.8982 13.4581 45.248 16.8998C45.9553 16.785 47.4677 16.255 49.7852 15.3098C51.9079 14.3783 54.3165 12.7746 57.0112 10.4987C57.4374 10.2079 57.856 10.1459 58.267 10.3127C58.6709 10.4148 58.8942 10.66 58.9369 11.0483C58.9725 11.3719 58.8133 11.7091 58.4592 12.06C54.9852 14.3906 52.4719 15.9364 50.9195 16.6975C47.8147 18.2196 45.5803 19.0285 44.2165 19.1242C44.108 19.3275 43.7824 19.9372 43.2397 20.9535C42.6899 21.9051 42.303 22.5518 42.0788 22.8936C41.8546 23.2354 41.4605 23.8173 40.8965 24.6395C40.3903 25.3923 39.9312 25.9788 39.5193 26.399C39.1724 26.8147 38.6991 27.2717 38.0995 27.7703C37.4999 28.2689 36.8896 28.6704 36.2686 28.9748C34.637 29.611 33.3025 29.3786 32.2652 28.2775C31.1629 27.181 30.714 25.7778 30.9186 24.0679C31.1676 21.5723 31.8864 18.5873 33.0748 15.1128C33.6913 12.9828 34.0213 11.8184 34.0649 11.6197C34.1663 11.3517 34.2459 11.1831 34.3038 11.1138C34.197 10.1431 34.3535 9.18652 34.7734 8.24407C35.4753 6.89055 36.6278 5.76627 38.231 4.87122C39.899 3.97162 41.613 3.78615 43.3727 4.3148Z" fill="#0C0C0C"/>
<path d="M59.1523 5.65308C59.5126 5.95387 59.7319 6.46019 59.8102 7.17204C60.5025 12.2753 61.1503 15.784 61.7535 17.6981C62.0213 17.1576 62.423 16.3468 62.9585 15.2658C63.559 14.1803 64.0545 13.3303 64.445 12.716C64.8285 12.037 65.2986 11.254 65.8555 10.3672C66.4124 9.48034 66.9511 8.7252 67.4715 8.10176C68.0711 7.6032 68.7135 7.49291 69.3985 7.77091C70.0835 8.04891 70.4941 8.5092 70.6303 9.15178C70.7664 9.79436 70.5382 10.3973 69.9457 10.9606C69.3826 11.1957 68.6602 11.7681 67.7786 12.6778C66.4272 14.0768 64.6164 16.3559 62.3461 19.5151C63.1655 21.6096 64.0472 23.0802 64.9912 23.927C66.2234 25.0144 68.0414 25.1803 70.4452 24.4247C72.8205 23.4102 75.4249 21.2059 78.2584 17.8116C80.2751 15.3224 81.9676 12.5625 83.3358 9.53192C83.6107 9.05614 83.9466 8.83694 84.3433 8.87431C84.8051 8.90712 85.1222 9.11312 85.2948 9.49228C85.5253 9.80218 85.5355 10.1927 85.3256 10.664C82.8524 14.359 80.9255 17.0701 79.5448 18.7974C76.4943 22.5981 73.7992 25.1675 71.4594 26.5055C71.2717 26.5839 71.0226 26.6992 70.7122 26.8514C70.3945 26.9389 70.1744 27.0196 70.0516 27.0934C67.2288 28.2045 64.8556 27.7515 62.9321 25.7344C62.4855 25.244 61.7586 23.9908 60.7515 21.9746C57.6779 26.7552 55.0295 31.832 52.8064 37.2051C52.5315 37.6809 52.1632 37.9024 51.7015 37.8696C51.1819 37.906 50.8034 37.7369 50.5658 37.3623C50.3283 36.9877 50.3109 36.5324 50.5137 35.9965C54.3533 30.4448 57.5826 25.2946 60.2016 20.5459C59.7274 19.2097 59.1566 17.2934 58.4893 14.7969C57.8149 12.2356 57.3665 10.539 57.144 9.7068C56.6102 9.61383 56.1561 9.35223 55.7815 8.92202C55.4719 8.48726 55.4114 7.93719 55.6 7.27182C55.6507 7.13784 55.7232 6.9045 55.8175 6.57182C55.9767 6.23458 56.0817 5.99897 56.1324 5.86498C56.9348 4.83048 57.9415 4.75985 59.1523 5.65308Z" fill="#0C0C0C"/>
<path d="M85.6826 11.9106C84.2352 14.8163 83.4698 17.6742 83.3862 20.4842C83.2902 21.9909 83.7074 22.8094 84.638 22.9397C85.5686 23.07 86.6771 22.438 87.9635 21.0434C89.5968 19.2333 90.8334 17.3857 91.6732 15.5008C90.6056 15.3149 89.4481 14.907 88.2008 14.2772C87.0113 13.5781 86.1719 12.7892 85.6826 11.9106ZM92.5098 13.2901C92.8719 12.4169 93.2415 11.315 93.6187 9.98424C93.9888 8.58879 94.0594 7.14914 93.8308 5.66528C93.6599 4.11215 92.9397 3.21709 91.6702 2.98011C90.3428 2.81239 89.2058 3.18563 88.2593 4.09982C87.3056 4.9493 86.8964 5.98882 87.0316 7.21838C87.094 8.97476 87.5717 10.3433 88.465 11.3241C89.2933 12.3094 90.6416 12.9647 92.5098 13.2901ZM93.102 0.82542C94.5157 1.18272 95.5388 2.15434 96.1714 3.74029C97.0255 6.74538 96.6275 9.96876 94.9773 13.4104C95.6846 13.2956 97.197 12.7656 99.5145 11.8204C101.637 10.8889 104.046 9.2852 106.741 7.00929C107.167 6.71854 107.585 6.65656 107.996 6.82336C108.4 6.92545 108.623 7.17063 108.666 7.55891C108.702 7.88248 108.543 8.21972 108.188 8.57063C104.714 10.9012 102.201 12.447 100.649 13.2081C97.544 14.7302 95.3096 15.5391 93.9458 15.6348C93.8373 15.8381 93.5117 16.4479 92.969 17.4641C92.4192 18.4157 92.0323 19.0624 91.8081 19.4042C91.5839 19.746 91.1898 20.3279 90.6258 21.1501C90.1196 21.9029 89.6605 22.4895 89.2486 22.9096C88.9017 23.3253 88.4284 23.7824 87.8288 24.2809C87.2292 24.7795 86.6189 25.181 85.9979 25.4854C84.3663 26.1216 83.0318 25.8892 81.9945 24.7881C80.8922 23.6916 80.4433 22.2884 80.6479 20.5785C80.8969 18.083 81.6156 15.0979 82.8041 11.6235C83.4206 9.49337 83.7506 8.32898 83.7942 8.13028C83.8956 7.86231 83.9752 7.69369 84.0331 7.62442C83.9263 6.65371 84.0828 5.69714 84.5027 4.75469C85.2046 3.40117 86.3571 2.27689 87.9603 1.38184C89.6283 0.482238 91.3422 0.296764 93.102 0.82542Z" fill="#0C0C0C"/>
<path d="M47.1675 26.5315C49.0492 27.5733 50.1252 29.3237 50.3958 31.7829C50.5381 33.0771 50.4523 34.9743 50.1384 37.4745C49.8244 39.9746 49.6634 41.4858 49.6554 42.0081C49.3512 42.812 48.8094 43.2413 48.0301 43.296C46.7961 43.3826 46.1151 42.8434 45.9869 41.6786C45.9727 41.5491 46.0092 41.2857 46.0963 40.8883C47.0438 39.3872 47.5237 36.908 47.536 33.4508L47.4506 32.6743C47.294 31.2506 46.9852 30.2288 46.5244 29.609C46.1214 28.9199 45.4327 28.6096 44.4586 28.6779C43.939 28.7144 43.3327 28.8548 42.6397 29.099C41.2465 29.5229 38.9642 31.0851 35.7926 33.7857C33.2421 36.1819 30.6795 39.3616 28.105 43.3246C22.5289 52.1284 18.9034 61.7083 17.2284 72.0643C16.7116 75.1003 16.5761 78.9248 16.8217 83.5377L16.9285 84.5084C17.5265 89.9444 19.4492 94.9287 22.6966 99.4614C24.0649 101.191 25.5604 102.293 27.1832 102.766C28.1929 103.021 29.0225 103.126 29.672 103.08C31.0358 102.985 32.7217 102.247 34.7296 100.867C35.8132 100.008 36.8643 99.1521 37.8829 98.298C38.9015 97.444 39.913 96.5253 40.9174 95.5418C41.9147 94.4936 42.7349 93.6209 43.3781 92.9236C44.0213 92.2264 44.8309 91.2566 45.8068 90.0143C46.7827 88.7719 47.4406 87.9106 47.7804 87.4303C48.1852 86.9454 48.9009 86.0148 49.9275 84.6385C51.012 83.1929 51.6663 82.2992 51.8905 81.9574C52.4109 81.334 53.5714 79.6874 55.372 77.0178C55.6104 76.8054 55.8991 76.7526 56.238 76.8592C56.5699 76.9011 56.8835 77.0748 57.1789 77.3801C57.4742 77.6854 57.5352 77.942 57.3617 78.1498C53.6387 82.976 48.7595 88.8941 42.7243 95.9041C42.6087 96.0427 42.2871 96.3913 41.7595 96.95C41.232 97.5087 40.8815 97.892 40.708 98.0998C40.5923 98.2384 40.2707 98.587 39.7432 99.1457C39.2735 99.6352 38.9194 99.9861 38.681 100.198C38.5075 100.406 38.1823 100.723 37.7055 101.147C37.2287 101.572 36.8386 101.893 36.5352 102.11C36.2318 102.327 35.8382 102.615 35.3542 102.975C34.9352 103.331 34.5415 103.619 34.1732 103.841C33.8049 104.062 33.3716 104.288 32.8734 104.519C32.4402 104.745 31.9709 104.941 31.4656 105.107C30.3971 105.508 29.4083 105.74 28.4991 105.804C26.8754 105.918 25.3355 105.602 23.8791 104.856C20.4761 103.074 17.7256 99.1907 15.6277 93.2079C14.8518 90.9146 14.3073 88.3443 13.994 85.4969C13.5099 81.0964 13.7981 76.5764 14.8584 71.9371C16.0788 66.3736 17.5653 61.4435 19.3178 57.1469C23.9383 45.606 28.5683 37.4229 33.2077 32.5976C35.9033 29.7347 38.3124 27.8375 40.4351 26.906C41.742 26.2926 42.9474 25.9472 44.0515 25.8697C45.0906 25.7968 46.1293 26.0174 47.1675 26.5315Z" fill="#0C0C0C"/>
<path d="M62.2076 66.6583C62.1062 66.9263 61.9901 67.3583 61.8593 67.9544C61.7864 68.4813 61.7317 68.8764 61.6952 69.1398C61.5137 69.8699 61.1054 70.3224 60.4702 70.4974C59.835 70.6724 59.2652 70.5493 58.7607 70.1283C58.2491 69.6424 58.0841 69.0345 58.2656 68.3044C58.4835 67.3109 58.5676 66.5877 58.5177 66.1347C58.6271 65.3444 58.9959 64.8295 59.624 64.5898C60.317 64.3455 60.9482 64.4316 61.5176 64.8482C62.087 65.2647 62.317 65.8681 62.2076 66.6583ZM76.5215 77.1967C73.2477 80.7523 70.2127 83.802 67.4166 86.3459C64.1801 89.0511 61.638 90.6316 59.7902 91.0873C57.6034 91.4364 55.9878 91.028 54.9433 89.8623C54.1657 88.743 53.7418 87.5663 53.6715 86.3322C53.6661 85.0935 53.7942 83.8781 54.0557 82.6859C54.3172 81.4937 54.6944 80.163 55.1872 78.6937C55.68 77.2244 56.0208 76.1571 56.2093 75.4917C56.478 74.3643 56.6052 73.7358 56.591 73.6064C56.7653 72.8116 57.2061 72.3568 57.9134 72.2419C58.6135 72.0624 59.2194 72.2155 59.731 72.7013C60.2425 73.1871 60.4111 73.8274 60.2368 74.6222C58.8837 77.1953 57.8727 80.2008 57.2038 83.6388C56.7021 86.2174 56.7502 87.8443 57.348 88.5197C57.7083 88.8205 58.3106 88.9413 59.1549 88.882C61.5507 88.6487 64.0311 87.3986 66.5959 85.1318C67.6145 84.2778 68.4779 83.4999 69.186 82.7981C69.9591 82.0917 70.6383 81.4245 71.2237 80.7965C71.874 80.164 72.3148 79.7091 72.5461 79.4321C72.8353 79.0857 73.2979 78.5315 73.9339 77.7696C74.57 77.0076 75.0037 76.488 75.235 76.211C75.4663 75.9339 75.7515 75.8487 76.0904 75.9553C76.4223 75.9972 76.6349 76.1453 76.7283 76.3996C76.8217 76.6539 76.7528 76.9196 76.5215 77.1967Z" fill="#0C0C0C"/>
<path d="M76.6728 71.2191L76.6621 71.122L76.7489 71.0181C77.2177 71.1156 77.8596 71.2988 78.6745 71.5677C79.5473 71.7673 80.0846 71.8927 80.2866 71.9437C80.2288 72.013 80.207 72.1123 80.2212 72.2418C80.2355 72.3712 80.2101 72.4382 80.1452 72.4427C79.9059 73.2421 79.6345 73.7502 79.3312 73.9672C77.7317 77.2748 76.4591 81.4726 75.5136 86.5603C80.4287 80.6723 83.8618 76.7795 85.8128 74.8818C86.5209 74.18 87.2646 73.8018 88.044 73.7471C88.4986 73.7152 88.8304 73.7571 89.0395 73.8729C89.1765 73.9285 89.3171 74.0164 89.4612 74.1367C89.6703 74.2525 89.8108 74.3404 89.8829 74.4006C90.5599 75.2009 91.0124 76.6364 91.2402 78.7073C91.7029 82.9137 92.4894 85.304 93.5997 85.8782C93.8088 85.994 94.1407 86.0359 94.5953 86.004C94.855 85.9858 95.6166 85.7693 96.8799 85.3546C100.172 83.7541 103.569 80.1246 107.07 74.4663C107.576 73.7134 108.092 73.6446 108.618 74.2599C109.057 74.6855 109.049 75.2078 108.594 75.8267C104.531 81.1332 101.001 84.7394 98.0035 86.6452C96.5232 87.4664 95.2634 87.9135 94.2243 87.9864C93.0553 88.0684 92.0385 87.7485 91.1737 87.0266C90.3881 86.4296 89.8049 85.5902 89.4241 84.5082C89.1083 83.4218 88.8396 82.169 88.618 80.7498C88.3893 79.266 88.1313 78.1102 87.8439 77.2826C86.255 78.3071 84.9005 79.3803 83.7805 80.5023C80.0877 84.4134 77.3766 88.0273 75.6472 91.3441C74.859 92.5081 74.1295 93.0158 73.4587 92.8672C72.1891 92.6302 71.5806 91.8577 71.633 90.5498C71.7202 90.1524 71.8398 89.7527 71.992 89.3508C72.0791 88.9534 72.1952 88.5213 72.3402 88.0547C72.4852 87.588 72.6084 87.2207 72.7099 86.9527C74.4205 81.6808 75.665 76.9307 76.4433 72.7025C76.3499 72.4482 76.4264 71.9537 76.6728 71.2191Z" fill="#0C0C0C"/>
<path d="M130.916 36.6975C130.238 37.0712 129.305 38.1148 128.119 39.8283C126.673 42.1471 125.091 45.6166 123.374 50.2367C120.875 57.2595 119.332 63.7587 118.746 69.7342C124.185 60.8749 128.08 51.9608 130.431 42.992C130.844 41.3979 131.06 39.7851 131.077 38.1535C131.077 38.1535 131.023 37.6682 130.916 36.6975ZM130.668 36.2258C130.61 36.2951 130.585 36.3621 130.592 36.4268C130.657 36.4222 130.758 36.4477 130.895 36.5033C130.888 36.4386 130.812 36.3461 130.668 36.2258ZM133.657 34.8422C134.175 35.9797 134.343 37.207 134.161 38.5241C133.84 40.3725 133.347 42.1353 132.681 43.8124C128.567 54.0134 123.885 63.5044 118.634 72.2854C118.41 76.8008 118.914 80.4826 120.143 83.331C121.48 86.563 124.014 86.0918 127.743 81.9173C130.02 79.4099 132.427 76.0129 134.966 71.7263C135.198 71.4492 135.479 71.3317 135.811 71.3736C136.143 71.4155 136.359 71.596 136.459 71.915C136.618 72.1647 136.617 72.4582 136.458 72.7955C135.656 73.83 134.687 75.137 133.552 76.7166C132.417 78.2961 131.365 79.7394 130.396 81.0464L129.702 81.8777C129.311 82.492 129.029 82.9031 128.856 83.1109C128.74 83.2494 128.451 83.5958 127.989 84.15C127.526 84.7041 127.147 85.122 126.85 85.4037C126.547 85.6206 126.124 85.9437 125.583 86.373C125.106 86.7977 124.651 87.1231 124.217 87.3492C123.842 87.5059 123.402 87.6673 122.896 87.8331C122.456 87.9945 121.972 88.061 121.446 88.0327C120.912 87.9398 120.403 87.7798 119.92 87.5529C118.197 86.7608 117.115 84.3586 116.673 80.3464C116.334 80.8267 115.839 81.0897 115.189 81.1352C114.598 81.1115 114.111 80.8522 113.73 80.3573C111.965 83.3505 110.605 85.5654 109.65 87.0018C108.277 88.7938 106.977 89.4719 105.751 89.0362C105.614 88.9806 105.473 88.8926 105.329 88.7723C105.12 88.6566 104.98 88.5686 104.908 88.5084C104.295 87.7036 104.001 86.5178 104.025 84.951C104.479 80.7455 105.942 76.7953 108.415 73.1002C109.992 70.7724 111.509 69.3942 112.967 68.9659C114.973 68.7599 116.3 69.5146 116.947 71.2299C117.589 66.3591 119.356 59.2246 122.249 49.8266C123.692 45.0952 124.953 41.3874 126.032 38.7031C127.299 35.9405 128.485 34.227 129.59 33.5625C131.279 32.857 132.635 33.2836 133.657 34.8422ZM113.796 72.0379C112.656 72.3788 111.572 73.2374 110.545 74.6137C109.403 76.1285 108.448 78.152 107.679 80.684C107.2 82.2827 107.007 83.7962 107.099 85.2245L107.109 85.3215C108.922 83.9553 111.178 81.2537 113.875 77.2169C114.529 74.2364 114.502 72.5101 113.796 72.0379Z" fill="#0C0C0C"/>
<path d="M147.084 82.6144C143.102 86.8718 140.189 90.7282 138.344 94.1835C136.296 98.1748 135.129 101.55 134.844 104.309C134.762 105.945 134.926 107.14 135.336 107.894C135.336 107.894 135.275 107.931 135.152 108.004C135.303 108.189 135.466 108.178 135.639 107.97C136.26 107.666 137.236 106.717 138.566 105.124C142.817 99.1519 145.657 91.6488 147.084 82.6144ZM149.493 78.6304C150.555 77.5777 151.718 76.5505 152.982 75.5488C154.304 74.4778 155.937 73.2547 157.88 71.8793C159.823 70.5039 161.127 69.5646 161.791 69.0615C162.282 68.7662 162.701 68.7042 163.047 68.8756C163.451 68.9777 163.645 69.2575 163.63 69.715C163.68 70.168 163.459 70.5422 162.968 70.8375C157.422 73.9656 152.836 77.1894 149.209 80.5089C147.078 91.4838 144.269 100.159 140.782 106.533C139.863 108.293 138.768 109.642 137.497 110.579C136.089 111.46 134.822 111.549 133.698 110.845C132.076 109.785 131.661 107.5 132.452 103.988C133.236 100.998 134.818 97.5286 137.197 93.5792C139.693 89.4914 143.054 85.2449 147.282 80.8398C147.749 77.3507 147.778 74.3488 147.371 71.8341L143.728 76.1982C141.646 78.6919 140.125 80.3312 139.164 81.1159C138.298 81.568 137.734 81.8032 137.475 81.8214C136.125 82.0465 135.141 81.4308 134.523 79.9743C134.186 78.6937 134.155 77.2285 134.432 75.5788C134.498 74.9872 134.6 74.1323 134.739 73.0139C134.942 71.891 135.081 71.0661 135.154 70.5393C134.744 69.7855 134.893 68.7642 135.602 67.4754L139.009 68.9971C139.081 69.0573 139.03 69.1913 138.857 69.3991C137.923 71.6167 137.411 73.8046 137.321 75.963C137.283 77.4004 137.307 78.2138 137.393 78.4034C137.834 78.2421 138.267 78.016 138.693 77.7253C139.177 77.3653 139.538 77.0791 139.777 76.8667C140.008 76.5896 140.355 76.174 140.817 75.6198C141.338 74.9964 141.659 74.6478 141.782 74.5739C142.939 73.1885 144.016 71.6782 145.014 70.0431C145.68 68.953 146.276 68.1286 146.804 67.5698C147.663 67.053 148.413 67.033 149.055 67.5097C149.689 67.9217 150.099 68.6755 150.285 69.771C150.455 71.9111 150.191 74.8643 149.493 78.6304Z" fill="#0C0C0C"/>
</svg>
