<?xml version="1.0" encoding="utf-8"?>
<!-- Generator: Adobe Illustrator 24.2.3, SVG Export Plug-In . SVG Version: 6.00 Build 0)  -->
<svg version="1.1" id="Layer_1" xmlns="http://www.w3.org/2000/svg" xmlns:xlink="http://www.w3.org/1999/xlink" x="0px" y="0px"
	 viewBox="0 0 120 120" style="enable-background:new 0 0 120 120;" xml:space="preserve">
<style type="text/css">
	.st0{fill:#231F20;}
	.st1{fill:#FFFFFF;}
</style>
<g>
	<g>
		<circle class="st0" cx="60" cy="60" r="60"/>
	</g>
	<g>
		<g>
			<path class="st1" d="M41.85,97.89c-0.58,0-1.17-0.12-1.72-0.36c-1.59-0.69-2.61-2.26-2.58-4l0.21-16.06
				c0.01-1.02,0.84-1.84,1.86-1.84c0.01,0,0.02,0,0.03,0c1.03,0.01,1.85,0.86,1.84,1.89l-0.21,16.06c0,0.32,0.19,0.47,0.35,0.54
				s0.4,0.11,0.63-0.11L50,86.63c0.44-0.42,1.07-0.6,1.67-0.47c2.71,0.57,5.51,0.86,8.33,0.86c18.74,0,33.99-12.72,33.99-28.34
				S78.75,30.32,60,30.32S26.01,43.04,26.01,58.67c0,7.51,3.49,14.59,9.84,19.93c0.79,0.66,0.89,1.84,0.22,2.62
				c-0.66,0.79-1.84,0.89-2.62,0.22c-7.2-6.06-11.16-14.16-11.16-22.78s3.96-16.72,11.16-22.78C40.56,29.9,49.99,26.6,60,26.6
				s19.44,3.3,26.55,9.28c7.2,6.06,11.16,14.16,11.16,22.78s-3.97,16.72-11.17,22.78c-7.11,5.99-16.54,9.29-26.55,9.29
				c-2.74,0-5.47-0.25-8.13-0.75l-7.06,6.71C44,97.48,42.93,97.89,41.85,97.89z"/>
		</g>
		<g>
			<path class="st1" d="M60.31,74.2c-1.53,0-3.09-0.19-4.66-0.56c-4.17-1-6.95-2.99-7.07-3.07c-0.83-0.6-1.02-1.77-0.42-2.6
				c0.6-0.83,1.76-1.02,2.6-0.42c0.06,0.04,2.42,1.7,5.88,2.5c4.53,1.05,8.77,0.2,12.61-2.51c0.84-0.59,2-0.39,2.59,0.45
				c0.59,0.84,0.39,2-0.45,2.59C68.01,72.98,64.24,74.2,60.31,74.2z"/>
		</g>
		<g>
			<g>
				<ellipse class="st1" cx="70.33" cy="50.92" rx="2.4" ry="6.31"/>
			</g>
			<g>
				<ellipse class="st1" cx="49.67" cy="50.92" rx="2.4" ry="6.31"/>
			</g>
		</g>
		<g>
			<path class="st1" d="M73.39,72.29c-0.14,0-0.27-0.01-0.41-0.05c-3.05-0.69-5.17-3.35-5.17-6.48c0-1.03,0.83-1.86,1.86-1.86
				c1.03,0,1.86,0.83,1.86,1.86c0,1.35,0.96,2.55,2.27,2.85c1,0.23,1.63,1.22,1.4,2.23C75.01,71.7,74.24,72.29,73.39,72.29z"/>
		</g>
	</g>
</g>
</svg>
