<?xml version="1.0" encoding="utf-8"?>
<!-- Generator: Adobe Illustrator 24.1.0, SVG Export Plug-In . SVG Version: 6.00 Build 0)  -->
<svg version="1.1" id="Layer_1" xmlns="http://www.w3.org/2000/svg" xmlns:xlink="http://www.w3.org/1999/xlink" x="0px" y="0px"
	 viewBox="0 0 480 480" style="enable-background:new 0 0 480 480;" xml:space="preserve">
<style type="text/css">
	.st0{fill:#686868;}
</style>
<path class="st0" d="M348,20c-43,0.1-83.3,21-108,56.2C215.3,41,175,20.1,132,20C61.7,20,0,85.4,0,160c0,72.7,41,147.5,118.7,216.5
	c36,31.9,75.4,59.6,117.6,82.6c2.3,1.2,5,1.2,7.3,0c42.2-23,81.6-50.8,117.6-82.6C439,307.5,480,232.7,480,160
	C480,85.4,418.3,20,348,20z M240,442.9C210.6,426.7,16,313.4,16,160C16,94,70.2,36,132,36c41.9,0.1,80.5,22.7,101,59.1
	c1.5,2.3,4.2,3.8,7,3.8s5.4-1.4,7-3.8c20.6-36.5,59.2-59.1,101-59.1c61.8,0,116,58,116,124C464,313.4,269.4,426.7,240,442.9z"/>
</svg>
