<?xml version="1.0" encoding="utf-8"?>
<!-- Generator: Adobe Illustrator 24.1.0, SVG Export Plug-In . SVG Version: 6.00 Build 0)  -->
<svg version="1.1" id="Layer_1" xmlns="http://www.w3.org/2000/svg" xmlns:xlink="http://www.w3.org/1999/xlink" x="0px" y="0px"
	 viewBox="0 0 120 120" style="enable-background:new 0 0 120 120;" xml:space="preserve">
<style type="text/css">
	.st0{fill:#E5A800;}
	.st1{fill:#FFFFFF;}
</style>
<g>
	<g>
		<circle class="st0" cx="60" cy="60" r="60"/>
	</g>
	<g>
		<g>
			<ellipse class="st1" cx="70.3" cy="61.2" rx="2.4" ry="6.3"/>
		</g>
		<g>
			<ellipse class="st1" cx="49.7" cy="61.2" rx="2.4" ry="6.3"/>
		</g>
	</g>
	<g>
		<g>
			<path class="st1" d="M60.9,76.9c-0.8,0-1.7-0.1-2.6-0.3c-2.2-0.5-3.7-1.6-3.9-1.7c-0.8-0.6-1-1.8-0.4-2.6c0.6-0.8,1.8-1,2.6-0.4
				c0.2,0.1,4.2,2.8,8.2,0c0.8-0.6,2-0.4,2.6,0.4s0.4,2-0.4,2.6C65.2,76.3,63.1,76.9,60.9,76.9z"/>
		</g>
	</g>
	<g>
		<path class="st1" d="M42.5,95.3c-1.5,0-3-0.5-4.2-1.4c-2.2-1.6-3.3-4.3-2.9-7l2.4-14c0.2-1.1-0.2-2.3-1-3.1l-10.2-9.9
			c-2-1.9-2.7-4.7-1.8-7.4c0.9-2.6,3.1-4.5,5.8-4.9l14.1-2c1.1-0.2,2.1-0.9,2.6-1.9L53.6,31c1.2-2.5,3.7-4,6.4-4l0,0
			c2.8,0,5.2,1.5,6.4,4l6.3,12.8c0.5,1,1.5,1.7,2.6,1.9l14.1,2c2.7,0.4,4.9,2.3,5.8,4.9c0.8,2.6,0.2,5.4-1.8,7.4l-10.2,9.9
			c-0.8,0.8-1.2,1.9-1,3.1l2.4,14c0.5,2.7-0.6,5.4-2.9,7c-2.2,1.6-5.1,1.8-7.6,0.6l-12.6-6.6c-1-0.5-2.2-0.5-3.2,0l-12.6,6.6
			C44.8,95,43.6,95.3,42.5,95.3z M60,83.8c1.2,0,2.3,0.3,3.3,0.8l12.6,6.6c1.2,0.6,2.6,0.5,3.6-0.3s1.6-2.1,1.4-3.4l-2.4-14
			c-0.4-2.3,0.4-4.7,2.1-6.4l10.2-9.9c1-0.9,1.3-2.3,0.9-3.5c-0.4-1.3-1.5-2.2-2.8-2.3l-14.1-2c-2.3-0.3-4.4-1.8-5.4-3.9l-6.3-12.7
			l0,0c-0.6-1.2-1.8-1.9-3.1-1.9s-2.5,0.7-3.1,1.9l-6.3,12.8c-1,2.1-3.1,3.6-5.4,3.9l-14.1,2c-1.3,0.2-2.4,1.1-2.8,2.3
			s-0.1,2.6,0.9,3.5l10.2,9.9c1.7,1.7,2.5,4,2.1,6.4l-2.4,14c-0.2,1.3,0.3,2.6,1.4,3.4s2.5,0.9,3.6,0.3l12.6-6.6
			C57.7,84,58.8,83.8,60,83.8z"/>
	</g>
</g>
</svg>
