<?xml version="1.0" encoding="utf-8"?>
<!-- Generator: Adobe Illustrator 24.1.0, SVG Export Plug-In . SVG Version: 6.00 Build 0)  -->
<svg version="1.1" id="Layer_1" xmlns="http://www.w3.org/2000/svg" xmlns:xlink="http://www.w3.org/1999/xlink" x="0px" y="0px"
	 viewBox="0 0 300 300" style="enable-background:new 0 0 300 300;" xml:space="preserve">
<style type="text/css">
	.st0{fill:#D1D3D4;}
	.st1{fill:#FFFFFF;}
</style>
<circle class="st0" cx="150" cy="150" r="150"/>
<g>
	<path class="st1" d="M234.6,178.3l0.5-101.4c0-6.2-5-11.2-11.1-11.2l-101.4-0.5c-5.7,0-10.3,4.6-10.4,10.3
		c0,5.7,4.6,10.3,10.3,10.4l92,0.5l-0.5,92c0,5,3.6,9.2,8.3,10.2c0.6,0.1,1.3,0.2,2,0.2c2.8,0,5.3-1,7.3-3
		C233.5,183.6,234.6,181.1,234.6,178.3z"/>
	<path class="st1" d="M184.8,217.3c-1.9-2-4.5-3-7.3-3.1l-92-0.5l0.5-92c0-5.7-4.6-10.3-10.3-10.4c-5.7,0-10.3,4.6-10.4,10.3
		l-0.5,101.4c0,3,1.1,5.8,3.2,7.9c1.6,1.6,3.6,2.7,5.7,3.1c0.7,0.1,1.4,0.2,2.1,0.2l101.4,0.5c2.8,0,5.3-1,7.3-3
		c2-1.9,3-4.5,3.1-7.3C187.8,221.8,186.8,219.3,184.8,217.3z"/>
</g>
</svg>
